M48
; DRILL file {KiCad 9.0.4} date 2026-01-13T22:45:22+0530
; FORMAT={-:-/ absolute / metric / decimal}
; #@! TF.CreationDate,2026-01-13T22:45:22+05:30
; #@! TF.GenerationSoftware,Kicad,Pcbnew,9.0.4
; #@! TF.FileFunction,Plated,1,2,PTH
FMAT,2
METRIC
; #@! TA.AperFunction,Plated,PTH,ViaDrill
T1C0.300
; #@! TA.AperFunction,Plated,PTH,ViaDrill
T2C0.508
; #@! TA.AperFunction,Plated,PTH,ComponentDrill
T3C0.800
; #@! TA.AperFunction,Plated,PTH,ComponentDrill
T4C0.840
; #@! TA.AperFunction,Plated,PTH,ComponentDrill
T5C0.900
; #@! TA.AperFunction,Plated,PTH,ComponentDrill
T6C1.000
; #@! TA.AperFunction,Plated,PTH,ComponentDrill
T7C1.100
; #@! TA.AperFunction,Plated,PTH,ComponentDrill
T8C1.110
; #@! TA.AperFunction,Plated,PTH,ComponentDrill
T9C3.000
%
G90
G05
T1
X153.035Y-122.555
X157.988Y-82.55
X158.182Y-88.9
X177.14Y-128.168
X201.93Y-73.482
X204.076Y-75.806
T2
X115.364Y-72.644
X116.0Y-75.552
X116.0Y-87.676
X116.0Y-93.676
X116.0Y-99.676
X116.0Y-105.62
X116.0Y-111.62
X116.0Y-116.7
X116.0Y-122.7
X116.254Y-81.676
X118.364Y-72.644
X118.92Y-75.692
X118.92Y-87.816
X118.92Y-93.816
X118.92Y-99.816
X118.92Y-105.76
X118.92Y-111.76
X118.92Y-116.84
X118.92Y-122.84
X119.174Y-81.816
X121.92Y-75.692
X121.92Y-87.816
X121.92Y-93.816
X121.92Y-99.816
X121.92Y-105.76
X121.92Y-111.76
X121.92Y-116.84
X121.92Y-122.84
X122.174Y-81.816
X122.629Y-65.313
X124.0Y-116.84
X124.0Y-122.84
X126.571Y-60.0
X126.571Y-62.5
X127.0Y-116.84
X127.0Y-122.84
X127.127Y-127.889
X127.5Y-133.5
X129.08Y-116.84
X129.08Y-122.84
X130.0Y-60.0
X130.0Y-62.5
X131.013Y-76.098
X131.064Y-73.711
X131.191Y-85.979
X131.5Y-108.0
X131.5Y-110.744
X131.747Y-91.694
X131.747Y-94.615
X132.08Y-116.84
X132.08Y-122.84
X132.5Y-133.889
X132.621Y-127.5
X134.747Y-91.694
X134.747Y-94.615
X135.89Y-72.39
X135.89Y-74.93
X135.89Y-77.47
X136.192Y-123.317
X139.192Y-123.317
X140.0Y-64.008
X142.161Y-112.649
X142.415Y-123.317
X143.429Y-64.008
X145.0Y-77.0
X145.161Y-84.074
X145.161Y-104.267
X145.161Y-112.649
X145.415Y-123.317
X148.13Y-123.317
X148.384Y-126.873
X148.384Y-129.794
X149.0Y-77.0
X151.13Y-123.317
X151.384Y-126.873
X151.384Y-129.794
X154.353Y-129.794
X157.353Y-129.794
X160.322Y-129.921
X163.322Y-129.921
X163.83Y-64.008
X163.83Y-86.36
X163.83Y-88.9
X163.83Y-91.44
X166.545Y-133.985
X170.0Y-59.86
X174.989Y-60.0
X177.989Y-60.0
X180.34Y-101.6
X180.34Y-108.293
X180.34Y-118.364
X181.61Y-67.31
X181.61Y-70.815
X181.737Y-94.742
X181.991Y-84.328
X182.5Y-60.0
X184.15Y-67.31
X184.15Y-70.866
X184.15Y-94.742
X184.15Y-108.204
X184.404Y-84.328
X184.989Y-60.0
X185.42Y-124.46
X186.69Y-67.31
X187.96Y-124.46
X187.989Y-60.0
X190.5Y-78.74
X192.5Y-60.0
X193.04Y-78.74
X195.58Y-78.74
X195.58Y-91.44
X195.58Y-93.813
X203.2Y-89.154
X205.0Y-59.86
X205.0Y-64.86
X205.0Y-69.86
X209.989Y-60.0
X209.989Y-65.0
X209.989Y-70.0
X212.989Y-60.0
X212.989Y-65.0
X212.989Y-70.0
X213.36Y-86.36
X215.9Y-86.36
X217.0Y-127.5
X217.5Y-60.0
X217.5Y-65.0
X217.5Y-70.0
X218.44Y-86.36
X219.706Y-82.5
X219.88Y-70.0
X220.0Y-127.5
X220.98Y-86.36
X222.42Y-70.0
X222.42Y-77.5
X222.42Y-82.5
X224.5Y-92.5
X224.5Y-107.5
X224.5Y-120.0
X224.96Y-70.0
X224.96Y-77.5
X224.96Y-82.5
X227.5Y-107.5
X227.5Y-120.0
T3
X201.93Y-102.63
X201.93Y-106.68
X201.93Y-110.73
X201.93Y-114.78
X201.93Y-118.83
X201.93Y-122.88
X209.55Y-102.63
X209.55Y-106.68
X209.55Y-110.73
X209.55Y-114.78
X209.55Y-118.83
X209.55Y-122.88
X212.989Y-78.74
X217.989Y-78.74
T4
X214.311Y-114.117
X214.376Y-120.65
X216.851Y-114.117
X216.916Y-120.65
X219.391Y-114.117
X219.456Y-120.65
T5
X212.852Y-102.354
X215.392Y-102.354
X218.87Y-102.718
X221.41Y-102.718
T6
X124.754Y-104.394
X124.968Y-72.136
X124.968Y-83.82
X125.262Y-92.71
X127.254Y-104.394
X127.468Y-72.136
X127.468Y-83.82
X127.762Y-92.71
X138.216Y-83.82
X138.704Y-71.865
X138.724Y-104.394
X138.978Y-92.202
X140.716Y-83.82
X141.204Y-71.865
X141.224Y-104.394
X141.478Y-92.202
X147.694Y-60.025
X150.134Y-83.549
X150.154Y-92.202
X150.194Y-60.025
X150.408Y-71.628
X150.662Y-104.394
X150.876Y-113.284
X152.634Y-83.549
X152.654Y-92.202
X152.694Y-60.025
X152.908Y-71.628
X153.162Y-104.394
X153.376Y-113.284
X155.194Y-60.025
X170.434Y-133.096
X172.934Y-133.096
X175.434Y-133.096
X189.23Y-70.358
X189.484Y-115.57
X189.504Y-81.771
X189.504Y-93.201
X189.524Y-104.394
X189.865Y-126.746
X191.73Y-70.358
X191.984Y-115.57
X192.004Y-81.771
X192.004Y-93.201
X192.024Y-104.394
X192.365Y-126.746
X202.369Y-133.113
X202.478Y-81.788
X202.478Y-92.964
X204.869Y-133.113
X204.978Y-81.788
X204.978Y-92.964
X207.369Y-133.113
T7
X213.868Y-92.456
X218.948Y-92.456
T8
X160.782Y-66.294
X160.782Y-68.834
X160.782Y-71.374
X160.782Y-73.914
X160.782Y-76.454
X160.782Y-78.994
X160.782Y-81.534
X160.782Y-84.074
X160.782Y-86.614
X160.782Y-89.154
X160.782Y-91.694
X160.782Y-94.234
X160.782Y-96.774
X160.782Y-99.314
X160.782Y-101.854
X160.782Y-104.394
X160.782Y-106.934
X160.782Y-109.474
X160.782Y-112.014
X160.782Y-114.554
X160.782Y-117.094
X160.782Y-119.634
X160.782Y-122.174
X160.782Y-124.714
X163.322Y-112.014
X163.832Y-72.644
X163.832Y-75.184
X163.832Y-77.724
X163.832Y-80.264
X163.832Y-82.804
X165.862Y-112.014
X168.402Y-112.014
X170.942Y-112.014
X173.482Y-68.834
X173.482Y-112.014
X176.022Y-66.294
X176.022Y-68.834
X176.022Y-71.374
X176.022Y-73.914
X176.022Y-76.454
X176.022Y-78.994
X176.022Y-81.534
X176.022Y-84.074
X176.022Y-86.614
X176.022Y-89.154
X176.022Y-91.694
X176.022Y-94.234
X176.022Y-96.774
X176.022Y-99.314
X176.022Y-101.854
X176.022Y-104.394
X176.022Y-106.934
X176.022Y-109.474
X176.022Y-112.014
X176.022Y-114.554
X176.022Y-117.094
X176.022Y-119.634
X176.022Y-122.174
X176.022Y-124.714
T9
X115.5Y-60.0
X115.5Y-134.5
X224.5Y-134.722
X225.0Y-60.0
M30
