M48
;Layer_Color=9474304
;FILE_FORMAT=4:4
METRIC,LZ
;TYPE=PLATED
T01F00S00C0.7112
T02F00S00C0.8000
T03F00S00C0.8500
T04F00S00C0.9000
T05F00S00C1.0000
T06F00S00C1.1000
T07F00S00C1.1500
T08F00S00C3.0000
T09F00S00C4.5500
%
T01
X0012573Y0004573
X0015573
Y0008073
X0012573
Y0011573
X0015573
X0025573Y0037073
X0028573
X0031573
X0034573
X0056073Y0037573
X0059073
X0079573Y0030073
X0082573
X0085573
Y0027073
Y0024073
X0088573
Y0027073
Y0030073
Y0033073
X0085573
X0082573Y0026573
X0079573
X0085573Y0021073
X0088573
X0089073Y0060073
X0086073
Y0063073
X0089073
Y0066073
X0086073
Y0069073
X0089073
X0059573Y0079073
X0056573
X0049573
X0046573
X0056073Y0040573
X0059073
X0032573Y0049073
X0029573
Y0052573
X0032573
Y0056073
X0029573
X0027073Y0079073
X0024073
X0032073
X0035073
T02
X00208Y00201
X00233
Y00305
X00208
T03
X00425Y0036
X00515
X006845Y00362
X007745
X00721Y00413
X00631
X0046175Y0040725
X0037175
X00252Y0041
X00162
T04
X003545Y000595
X003795
X003745Y0029225
X003495
X003995
X004245
X006195
X006445
X006695
X006945
X006745Y00057
X006495
X006245
X005245Y000595
X004995
X004745
X004045
X007445Y0005675
X007695
X007945
T05
X00208Y00084
X00233
X003545Y0014225
X003795
Y0021225
X003545
X0007698Y0031608
Y0034148
Y0036688
X004745Y00212
X004995
X006245Y0021225
X006495
Y0013975
X006245
X007445Y0021225
X007695
X0082873Y0039493
Y0041773
T06
X0008548Y0017468
Y0022548
T07
X001555Y00507
X002335
T08
X0005073Y0005073
X0088073
X0088173Y0077973
X0005073Y0078073
T09
X00443Y00527
X00515
X00443Y00627
Y00727
X00631
X00703
Y00627
X00631
X00704Y00527
X00776
X00371Y00627
Y00727
X00233
X00161
Y00627
X00233
X00067Y005795
Y005075
M30
