G04*
G04 #@! TF.GenerationSoftware,Altium Limited,Altium Designer,26.2.0 (7)*
G04*
G04 Layer_Color=2752767*
%FSLAX44Y44*%
%MOMM*%
G71*
G04*
G04 #@! TF.SameCoordinates,E85B846E-6058-4BB5-BA70-B6274EE6EEFF*
G04*
G04*
G04 #@! TF.FilePolarity,Positive*
G04*
G01*
G75*
%ADD11C,0.2000*%
%ADD12C,0.1270*%
%ADD13C,0.2540*%
%ADD36C,0.3810*%
%ADD55C,0.4064*%
D11*
X1892520Y794700D02*
G03*
X1879820Y807400I-12700J0D01*
G01*
Y528000D02*
G03*
X1892520Y540700I0J12700D01*
G01*
X1039080D02*
G03*
X1051780Y528000I12700J0D01*
G01*
Y807400D02*
G03*
X1039080Y794700I0J-12700D01*
G01*
X1054320Y807400D02*
X1879820D01*
X1892520Y540700D02*
Y794700D01*
X1051780Y528000D02*
X1879820D01*
X1039080Y540700D02*
Y794700D01*
X1051780Y807400D02*
X1054320D01*
X1039080Y736280D02*
X1892520D01*
D12*
X690850Y362000D02*
G03*
X690850Y362000I-6350J0D01*
G01*
X780850D02*
G03*
X780850Y362000I-6350J0D01*
G01*
X168350Y410000D02*
G03*
X168350Y410000I-6350J0D01*
G01*
X258350D02*
G03*
X258350Y410000I-6350J0D01*
G01*
X378100Y407250D02*
G03*
X378100Y407250I-6350J0D01*
G01*
X468100D02*
G03*
X468100Y407250I-6350J0D01*
G01*
X637350Y413000D02*
G03*
X637350Y413000I-6350J0D01*
G01*
X727350D02*
G03*
X727350Y413000I-6350J0D01*
G01*
X89290Y225480D02*
G03*
X89290Y225480I-3810J0D01*
G01*
X91830D02*
G03*
X91830Y225480I-6350J0D01*
G01*
X89290Y174680D02*
G03*
X89290Y174680I-3810J0D01*
G01*
X91830D02*
G03*
X91830Y174680I-6350J0D01*
G01*
X521350Y360000D02*
G03*
X521350Y360000I-6350J0D01*
G01*
X431350D02*
G03*
X431350Y360000I-6350J0D01*
G01*
X339380Y370730D02*
X345730Y364380D01*
X352080Y370730D01*
X345730Y377080D02*
X352080Y370730D01*
X339380D02*
X345730Y377080D01*
X309380Y370730D02*
X315730Y364380D01*
X322080Y370730D01*
X315730Y377080D02*
X322080Y370730D01*
X309380D02*
X315730Y377080D01*
X249380Y370730D02*
X255730Y364380D01*
X262080Y370730D01*
X255730Y377080D02*
X262080Y370730D01*
X249380D02*
X255730Y377080D01*
X584380Y375730D02*
X590730Y369380D01*
X597080Y375730D01*
X590730Y382080D02*
X597080Y375730D01*
X584380D02*
X590730Y382080D01*
X279380Y370730D02*
X285730Y364380D01*
X292080Y370730D01*
X285730Y377080D02*
X292080Y370730D01*
X279380D02*
X285730Y377080D01*
X554380Y375730D02*
X560730Y369380D01*
X567080Y375730D01*
X560730Y382080D02*
X567080Y375730D01*
X554380D02*
X560730Y382080D01*
X789380Y265730D02*
X795730Y259380D01*
X802080Y265730D01*
X795730Y272080D02*
X802080Y265730D01*
X789380D02*
X795730Y272080D01*
X819380Y300730D02*
X825730Y294380D01*
X832080Y300730D01*
X825730Y307080D02*
X832080Y300730D01*
X819380D02*
X825730Y307080D01*
X819380Y265730D02*
X825730Y259380D01*
X832080Y265730D01*
X825730Y272080D02*
X832080Y265730D01*
X819380D02*
X825730Y272080D01*
X789380Y300730D02*
X795730Y294380D01*
X802080Y300730D01*
X795730Y307080D02*
X802080Y300730D01*
X789380D02*
X795730Y307080D01*
X149380Y80730D02*
X155730Y74380D01*
X162080Y80730D01*
X155730Y87080D02*
X162080Y80730D01*
X149380D02*
X155730Y87080D01*
X149380Y115730D02*
X155730Y109380D01*
X162080Y115730D01*
X155730Y122080D02*
X162080Y115730D01*
X149380D02*
X155730Y122080D01*
X119380Y80730D02*
X125730Y74380D01*
X132080Y80730D01*
X125730Y87080D02*
X132080Y80730D01*
X119380D02*
X125730Y87080D01*
X119380Y115730D02*
X125730Y109380D01*
X132080Y115730D01*
X125730Y122080D02*
X132080Y115730D01*
X119380D02*
X125730Y122080D01*
X319380Y560730D02*
X325730Y554380D01*
X332080Y560730D01*
X325730Y567080D02*
X332080Y560730D01*
X319380D02*
X325730Y567080D01*
X319380Y525730D02*
X325730Y519380D01*
X332080Y525730D01*
X325730Y532080D02*
X332080Y525730D01*
X319380D02*
X325730Y532080D01*
X289380Y525730D02*
X295730Y519380D01*
X302080Y525730D01*
X295730Y532080D02*
X302080Y525730D01*
X289380D02*
X295730Y532080D01*
X289380Y560730D02*
X295730Y554380D01*
X302080Y560730D01*
X295730Y567080D02*
X302080Y560730D01*
X289380D02*
X295730Y567080D01*
X289380Y490730D02*
X295730Y484380D01*
X302080Y490730D01*
X295730Y497080D02*
X302080Y490730D01*
X289380D02*
X295730Y497080D01*
X879380Y210730D02*
X885730Y204380D01*
X892080Y210730D01*
X885730Y217080D02*
X892080Y210730D01*
X879380D02*
X885730Y217080D01*
X884380Y600730D02*
X890730Y594380D01*
X897080Y600730D01*
X890730Y607080D02*
X897080Y600730D01*
X884380D02*
X890730Y607080D01*
X884380Y630730D02*
X890730Y624380D01*
X897080Y630730D01*
X890730Y637080D02*
X897080Y630730D01*
X884380D02*
X890730Y637080D01*
X884380Y660730D02*
X890730Y654380D01*
X897080Y660730D01*
X890730Y667080D02*
X897080Y660730D01*
X884380D02*
X890730Y667080D01*
X344380Y790730D02*
X350730Y784380D01*
X357080Y790730D01*
X350730Y797080D02*
X357080Y790730D01*
X344380D02*
X350730Y797080D01*
X459380Y790730D02*
X465730Y784380D01*
X472080Y790730D01*
X465730Y797080D02*
X472080Y790730D01*
X459380D02*
X465730Y797080D01*
X489380Y790730D02*
X495730Y784380D01*
X502080Y790730D01*
X495730Y797080D02*
X502080Y790730D01*
X489380D02*
X495730Y797080D01*
X314380Y790730D02*
X320730Y784380D01*
X327080Y790730D01*
X320730Y797080D02*
X327080Y790730D01*
X314380D02*
X320730Y797080D01*
X264380Y790730D02*
X270730Y784380D01*
X277080Y790730D01*
X270730Y797080D02*
X277080Y790730D01*
X264380D02*
X270730Y797080D01*
X589380Y790730D02*
X595730Y784380D01*
X602080Y790730D01*
X595730Y797080D02*
X602080Y790730D01*
X589380D02*
X595730Y797080D01*
X559380Y790730D02*
X565730Y784380D01*
X572080Y790730D01*
X565730Y797080D02*
X572080Y790730D01*
X559380D02*
X565730Y797080D01*
X234380Y790730D02*
X240730Y784380D01*
X247080Y790730D01*
X240730Y797080D02*
X247080Y790730D01*
X234380D02*
X240730Y797080D01*
X149380Y45730D02*
X155730Y39380D01*
X162080Y45730D01*
X155730Y52080D02*
X162080Y45730D01*
X149380D02*
X155730Y52080D01*
X119380Y45730D02*
X125730Y39380D01*
X132080Y45730D01*
X125730Y52080D02*
X132080Y45730D01*
X119380D02*
X125730Y52080D01*
X879380Y270730D02*
X885730Y264380D01*
X892080Y270730D01*
X885730Y277080D02*
X892080Y270730D01*
X879380D02*
X885730Y277080D01*
X879380Y300730D02*
X885730Y294380D01*
X892080Y300730D01*
X885730Y307080D02*
X892080Y300730D01*
X879380D02*
X885730Y307080D01*
X879380Y330730D02*
X885730Y324380D01*
X892080Y330730D01*
X885730Y337080D02*
X892080Y330730D01*
X879380D02*
X885730Y337080D01*
X879380Y240730D02*
X885730Y234380D01*
X892080Y240730D01*
X885730Y247080D02*
X892080Y240730D01*
X879380D02*
X885730Y247080D01*
X584380Y405730D02*
X590730Y399380D01*
X597080Y405730D01*
X590730Y412080D02*
X597080Y405730D01*
X584380D02*
X590730Y412080D01*
X854380Y690730D02*
X860730Y684380D01*
X867080Y690730D01*
X860730Y697080D02*
X867080Y690730D01*
X854380D02*
X860730Y697080D01*
X884380Y690730D02*
X890730Y684380D01*
X897080Y690730D01*
X890730Y697080D02*
X897080Y690730D01*
X884380D02*
X890730Y697080D01*
X319380Y490730D02*
X325730Y484380D01*
X332080Y490730D01*
X325730Y497080D02*
X332080Y490730D01*
X319380D02*
X325730Y497080D01*
X554380Y405730D02*
X560730Y399380D01*
X567080Y405730D01*
X560730Y412080D02*
X567080Y405730D01*
X554380D02*
X560730Y412080D01*
X854380Y630730D02*
X860730Y624380D01*
X867080Y630730D01*
X860730Y637080D02*
X867080Y630730D01*
X854380D02*
X860730Y637080D01*
X854380Y600730D02*
X860730Y594380D01*
X867080Y600730D01*
X860730Y607080D02*
X867080Y600730D01*
X854380D02*
X860730Y607080D01*
X849380Y330730D02*
X855730Y324380D01*
X862080Y330730D01*
X855730Y337080D02*
X862080Y330730D01*
X849380D02*
X855730Y337080D01*
X849380Y240730D02*
X855730Y234380D01*
X862080Y240730D01*
X855730Y247080D02*
X862080Y240730D01*
X849380D02*
X855730Y247080D01*
X849380Y270730D02*
X855730Y264380D01*
X862080Y270730D01*
X855730Y277080D02*
X862080Y270730D01*
X849380D02*
X855730Y277080D01*
X849380Y210730D02*
X855730Y204380D01*
X862080Y210730D01*
X855730Y217080D02*
X862080Y210730D01*
X849380D02*
X855730Y217080D01*
X849380Y300730D02*
X855730Y294380D01*
X862080Y300730D01*
X855730Y307080D02*
X862080Y300730D01*
X849380D02*
X855730Y307080D01*
X854380Y660730D02*
X860730Y654380D01*
X867080Y660730D01*
X860730Y667080D02*
X867080Y660730D01*
X854380D02*
X860730Y667080D01*
X50730Y46920D02*
X54540Y54540D01*
X46920D02*
X54540D01*
X46920D02*
X50730Y46920D01*
Y44380D02*
X57080Y57080D01*
X44380D02*
X57080D01*
X44380D02*
X50730Y44380D01*
X880730Y46920D02*
X884540Y54540D01*
X876920D02*
X884540D01*
X876920D02*
X880730Y46920D01*
Y44380D02*
X887080Y57080D01*
X874380D02*
X887080D01*
X874380D02*
X880730Y44380D01*
X881730Y775920D02*
X885540Y783540D01*
X877920D02*
X885540D01*
X877920D02*
X881730Y775920D01*
Y773380D02*
X888080Y786080D01*
X875380D02*
X888080D01*
X875380D02*
X881730Y773380D01*
X50730Y776920D02*
X54540Y784540D01*
X46920D02*
X54540D01*
X46920D02*
X50730Y776920D01*
Y774380D02*
X57080Y787080D01*
X44380D02*
X57080D01*
X44380D02*
X50730Y774380D01*
X616325Y289075D02*
X619500Y285900D01*
X613150Y289075D02*
X616325D01*
X613150D02*
X616325Y292250D01*
X613150Y295425D02*
X616325Y292250D01*
X613150Y295425D02*
X616325D01*
X619500Y298600D01*
X622675Y295425D01*
X625850D01*
X622675Y292250D02*
X625850Y295425D01*
X622675Y292250D02*
X625850Y289075D01*
X622675D02*
X625850D01*
X619500Y285900D02*
X622675Y289075D01*
X666325D02*
X669500Y285900D01*
X663150Y289075D02*
X666325D01*
X663150D02*
X666325Y292250D01*
X663150Y295425D02*
X666325Y292250D01*
X663150Y295425D02*
X666325D01*
X669500Y298600D01*
X672675Y295425D01*
X675850D01*
X672675Y292250D02*
X675850Y295425D01*
X672675Y292250D02*
X675850Y289075D01*
X672675D02*
X675850D01*
X669500Y285900D02*
X672675Y289075D01*
X691325D02*
X694500Y285900D01*
X688150Y289075D02*
X691325D01*
X688150D02*
X691325Y292250D01*
X688150Y295425D02*
X691325Y292250D01*
X688150Y295425D02*
X691325D01*
X694500Y298600D01*
X697675Y295425D01*
X700850D01*
X697675Y292250D02*
X700850Y295425D01*
X697675Y292250D02*
X700850Y289075D01*
X697675D02*
X700850D01*
X694500Y285900D02*
X697675Y289075D01*
X641325D02*
X644500Y285900D01*
X638150Y289075D02*
X641325D01*
X638150D02*
X641325Y292250D01*
X638150Y295425D02*
X641325Y292250D01*
X638150Y295425D02*
X641325D01*
X644500Y298600D01*
X647675Y295425D01*
X650850D01*
X647675Y292250D02*
X650850Y295425D01*
X647675Y292250D02*
X650850Y289075D01*
X647675D02*
X650850D01*
X644500Y285900D02*
X647675Y289075D01*
X763150Y205900D02*
X775850D01*
Y218600D01*
X763150D02*
X775850D01*
X763150Y205900D02*
Y218600D01*
X738150Y205900D02*
X750850D01*
Y218600D01*
X738150D02*
X750850D01*
X738150Y205900D02*
Y218600D01*
X643150Y205900D02*
X655850D01*
Y218600D01*
X643150D02*
X655850D01*
X643150Y205900D02*
Y218600D01*
X618150Y205900D02*
X630850D01*
Y218600D01*
X618150D02*
X630850D01*
X618150Y205900D02*
Y218600D01*
X643150Y133400D02*
X655850D01*
Y146100D01*
X643150D02*
X655850D01*
X643150Y133400D02*
Y146100D01*
X618150Y133400D02*
X630850D01*
Y146100D01*
X618150D02*
X630850D01*
X618150Y133400D02*
Y146100D01*
X201650Y301825D02*
X204825D01*
X201650D02*
Y308175D01*
X204825D01*
Y311350D01*
X211175D01*
Y308175D02*
Y311350D01*
Y308175D02*
X214350D01*
Y301825D02*
Y308175D01*
X211175Y301825D02*
X214350D01*
X211175Y298650D02*
Y301825D01*
X204825Y298650D02*
X211175D01*
X204825D02*
Y301825D01*
X226650D02*
X229825D01*
X226650D02*
Y308175D01*
X229825D01*
Y311350D01*
X236175D01*
Y308175D02*
Y311350D01*
Y308175D02*
X239350D01*
Y301825D02*
Y308175D01*
X236175Y301825D02*
X239350D01*
X236175Y298650D02*
Y301825D01*
X229825Y298650D02*
X236175D01*
X229825D02*
Y301825D01*
X60650Y573150D02*
X67000Y576325D01*
X73350Y573150D01*
X70175Y579500D02*
X73350Y573150D01*
X70175Y579500D02*
X73350Y585850D01*
X67000Y582675D02*
X73350Y585850D01*
X60650D02*
X67000Y582675D01*
X60650Y585850D02*
X63825Y579500D01*
X60650Y573150D02*
X63825Y579500D01*
X60650Y501150D02*
X67000Y504325D01*
X73350Y501150D01*
X70175Y507500D02*
X73350Y501150D01*
X70175Y507500D02*
X73350Y513850D01*
X67000Y510675D02*
X73350Y513850D01*
X60650D02*
X67000Y510675D01*
X60650Y513850D02*
X63825Y507500D01*
X60650Y501150D02*
X63825Y507500D01*
X791325Y53575D02*
X794500Y50400D01*
X788150Y53575D02*
X791325D01*
X788150D02*
X791325Y56750D01*
X788150Y59925D02*
X791325Y56750D01*
X788150Y59925D02*
X791325D01*
X794500Y63100D01*
X797675Y59925D01*
X800850D01*
X797675Y56750D02*
X800850Y59925D01*
X797675Y56750D02*
X800850Y53575D01*
X797675D02*
X800850D01*
X794500Y50400D02*
X797675Y53575D01*
X766325D02*
X769500Y50400D01*
X763150Y53575D02*
X766325D01*
X763150D02*
X766325Y56750D01*
X763150Y59925D02*
X766325Y56750D01*
X763150Y59925D02*
X766325D01*
X769500Y63100D01*
X772675Y59925D01*
X775850D01*
X772675Y56750D02*
X775850Y59925D01*
X772675Y56750D02*
X775850Y53575D01*
X772675D02*
X775850D01*
X769500Y50400D02*
X772675Y53575D01*
X741325D02*
X744500Y50400D01*
X738150Y53575D02*
X741325D01*
X738150D02*
X741325Y56750D01*
X738150Y59925D02*
X741325Y56750D01*
X738150Y59925D02*
X741325D01*
X744500Y63100D01*
X747675Y59925D01*
X750850D01*
X747675Y56750D02*
X750850Y59925D01*
X747675Y56750D02*
X750850Y53575D01*
X747675D02*
X750850D01*
X744500Y50400D02*
X747675Y53575D01*
X621325Y53825D02*
X624500Y50650D01*
X618150Y53825D02*
X621325D01*
X618150D02*
X621325Y57000D01*
X618150Y60175D02*
X621325Y57000D01*
X618150Y60175D02*
X621325D01*
X624500Y63350D01*
X627675Y60175D01*
X630850D01*
X627675Y57000D02*
X630850Y60175D01*
X627675Y57000D02*
X630850Y53825D01*
X627675D02*
X630850D01*
X624500Y50650D02*
X627675Y53825D01*
X646325D02*
X649500Y50650D01*
X643150Y53825D02*
X646325D01*
X643150D02*
X646325Y57000D01*
X643150Y60175D02*
X646325Y57000D01*
X643150Y60175D02*
X646325D01*
X649500Y63350D01*
X652675Y60175D01*
X655850D01*
X652675Y57000D02*
X655850Y60175D01*
X652675Y57000D02*
X655850Y53825D01*
X652675D02*
X655850D01*
X649500Y50650D02*
X652675Y53825D01*
X671325D02*
X674500Y50650D01*
X668150Y53825D02*
X671325D01*
X668150D02*
X671325Y57000D01*
X668150Y60175D02*
X671325Y57000D01*
X668150Y60175D02*
X671325D01*
X674500Y63350D01*
X677675Y60175D01*
X680850D01*
X677675Y57000D02*
X680850Y60175D01*
X677675Y57000D02*
X680850Y53825D01*
X677675D02*
X680850D01*
X674500Y50650D02*
X677675Y53825D01*
X436650Y720650D02*
X443000Y723825D01*
X449350Y720650D01*
X446175Y727000D02*
X449350Y720650D01*
X446175Y727000D02*
X449350Y733350D01*
X443000Y730175D02*
X449350Y733350D01*
X436650D02*
X443000Y730175D01*
X436650Y733350D02*
X439825Y727000D01*
X436650Y720650D02*
X439825Y727000D01*
X364650Y720650D02*
X371000Y723825D01*
X377350Y720650D01*
X374175Y727000D02*
X377350Y720650D01*
X374175Y727000D02*
X377350Y733350D01*
X371000Y730175D02*
X377350Y733350D01*
X364650D02*
X371000Y730175D01*
X364650Y733350D02*
X367825Y727000D01*
X364650Y720650D02*
X367825Y727000D01*
X624650Y720650D02*
X631000Y723825D01*
X637350Y720650D01*
X634175Y727000D02*
X637350Y720650D01*
X634175Y727000D02*
X637350Y733350D01*
X631000Y730175D02*
X637350Y733350D01*
X624650D02*
X631000Y730175D01*
X624650Y733350D02*
X627825Y727000D01*
X624650Y720650D02*
X627825Y727000D01*
X696650Y720650D02*
X703000Y723825D01*
X709350Y720650D01*
X706175Y727000D02*
X709350Y720650D01*
X706175Y727000D02*
X709350Y733350D01*
X703000Y730175D02*
X709350Y733350D01*
X696650D02*
X703000Y730175D01*
X696650Y733350D02*
X699825Y727000D01*
X696650Y720650D02*
X699825Y727000D01*
X624650Y620650D02*
X631000Y623825D01*
X637350Y620650D01*
X634175Y627000D02*
X637350Y620650D01*
X634175Y627000D02*
X637350Y633350D01*
X631000Y630175D02*
X637350Y633350D01*
X624650D02*
X631000Y630175D01*
X624650Y633350D02*
X627825Y627000D01*
X624650Y620650D02*
X627825Y627000D01*
X696650Y620650D02*
X703000Y623825D01*
X709350Y620650D01*
X706175Y627000D02*
X709350Y620650D01*
X706175Y627000D02*
X709350Y633350D01*
X703000Y630175D02*
X709350Y633350D01*
X696650D02*
X703000Y630175D01*
X696650Y633350D02*
X699825Y627000D01*
X696650Y620650D02*
X699825Y627000D01*
X769650Y520650D02*
X776000Y523825D01*
X782350Y520650D01*
X779175Y527000D02*
X782350Y520650D01*
X779175Y527000D02*
X782350Y533350D01*
X776000Y530175D02*
X782350Y533350D01*
X769650D02*
X776000Y530175D01*
X769650Y533350D02*
X772825Y527000D01*
X769650Y520650D02*
X772825Y527000D01*
X697650Y520650D02*
X704000Y523825D01*
X710350Y520650D01*
X707175Y527000D02*
X710350Y520650D01*
X707175Y527000D02*
X710350Y533350D01*
X704000Y530175D02*
X710350Y533350D01*
X697650D02*
X704000Y530175D01*
X697650Y533350D02*
X700825Y527000D01*
X697650Y520650D02*
X700825Y527000D01*
X70630Y309730D02*
X83330D01*
Y322430D01*
X70630D02*
X83330D01*
X70630Y309730D02*
Y322430D01*
Y335130D02*
X83330D01*
Y347830D01*
X70630D02*
X83330D01*
X70630Y335130D02*
Y347830D01*
Y360530D02*
X83330D01*
Y373230D01*
X70630D02*
X83330D01*
X70630Y360530D02*
Y373230D01*
X154650Y720650D02*
X161000Y723825D01*
X167350Y720650D01*
X164175Y727000D02*
X167350Y720650D01*
X164175Y727000D02*
X167350Y733350D01*
X161000Y730175D02*
X167350Y733350D01*
X154650D02*
X161000Y730175D01*
X154650Y733350D02*
X157825Y727000D01*
X154650Y720650D02*
X157825Y727000D01*
X226650Y720650D02*
X233000Y723825D01*
X239350Y720650D01*
X236175Y727000D02*
X239350Y720650D01*
X236175Y727000D02*
X239350Y733350D01*
X233000Y730175D02*
X239350Y733350D01*
X226650D02*
X233000Y730175D01*
X226650Y733350D02*
X229825Y727000D01*
X226650Y720650D02*
X229825Y727000D01*
X822380Y388580D02*
X835080D01*
Y401280D01*
X822380D02*
X835080D01*
X822380Y388580D02*
Y401280D01*
Y411380D02*
X835080D01*
Y424080D01*
X822380D02*
X835080D01*
X822380Y411380D02*
Y424080D01*
X346325Y289075D02*
X349500Y285900D01*
X343150Y289075D02*
X346325D01*
X343150D02*
X346325Y292250D01*
X343150Y295425D02*
X346325Y292250D01*
X343150Y295425D02*
X346325D01*
X349500Y298600D01*
X352675Y295425D01*
X355850D01*
X352675Y292250D02*
X355850Y295425D01*
X352675Y292250D02*
X355850Y289075D01*
X352675D02*
X355850D01*
X349500Y285900D02*
X352675Y289075D01*
X396325D02*
X399500Y285900D01*
X393150Y289075D02*
X396325D01*
X393150D02*
X396325Y292250D01*
X393150Y295425D02*
X396325Y292250D01*
X393150Y295425D02*
X396325D01*
X399500Y298600D01*
X402675Y295425D01*
X405850D01*
X402675Y292250D02*
X405850Y295425D01*
X402675Y292250D02*
X405850Y289075D01*
X402675D02*
X405850D01*
X399500Y285900D02*
X402675Y289075D01*
X421325D02*
X424500Y285900D01*
X418150Y289075D02*
X421325D01*
X418150D02*
X421325Y292250D01*
X418150Y295425D02*
X421325Y292250D01*
X418150Y295425D02*
X421325D01*
X424500Y298600D01*
X427675Y295425D01*
X430850D01*
X427675Y292250D02*
X430850Y295425D01*
X427675Y292250D02*
X430850Y289075D01*
X427675D02*
X430850D01*
X424500Y285900D02*
X427675Y289075D01*
X371325D02*
X374500Y285900D01*
X368150Y289075D02*
X371325D01*
X368150D02*
X371325Y292250D01*
X368150Y295425D02*
X371325Y292250D01*
X368150Y295425D02*
X371325D01*
X374500Y298600D01*
X377675Y295425D01*
X380850D01*
X377675Y292250D02*
X380850Y295425D01*
X377675Y292250D02*
X380850Y289075D01*
X377675D02*
X380850D01*
X374500Y285900D02*
X377675Y289075D01*
X373150Y135900D02*
X385850D01*
Y148600D01*
X373150D02*
X385850D01*
X373150Y135900D02*
Y148600D01*
X348150Y135900D02*
X360850D01*
Y148600D01*
X348150D02*
X360850D01*
X348150Y135900D02*
Y148600D01*
X373150Y205900D02*
X385850D01*
Y218600D01*
X373150D02*
X385850D01*
X373150Y205900D02*
Y218600D01*
X348150Y205900D02*
X360850D01*
Y218600D01*
X348150D02*
X360850D01*
X348150Y205900D02*
Y218600D01*
X493150Y205650D02*
X505850D01*
Y218350D01*
X493150D02*
X505850D01*
X493150Y205650D02*
Y218350D01*
X468150Y205650D02*
X480850D01*
Y218350D01*
X468150D02*
X480850D01*
X468150Y205650D02*
Y218350D01*
X201650Y197825D02*
X204825D01*
X201650D02*
Y204175D01*
X204825D01*
Y207350D01*
X211175D01*
Y204175D02*
Y207350D01*
Y204175D02*
X214350D01*
Y197825D02*
Y204175D01*
X211175Y197825D02*
X214350D01*
X211175Y194650D02*
Y197825D01*
X204825Y194650D02*
X211175D01*
X204825D02*
Y197825D01*
X226650D02*
X229825D01*
X226650D02*
Y204175D01*
X229825D01*
Y207350D01*
X236175D01*
Y204175D02*
Y207350D01*
Y204175D02*
X239350D01*
Y197825D02*
Y204175D01*
X236175Y197825D02*
X239350D01*
X236175Y194650D02*
Y197825D01*
X229825Y194650D02*
X236175D01*
X229825D02*
Y197825D01*
X226650Y77650D02*
X239350D01*
Y90350D01*
X226650D02*
X239350D01*
X226650Y77650D02*
Y90350D01*
X201650Y77650D02*
X214350D01*
Y90350D01*
X201650D02*
X214350D01*
X201650Y77650D02*
Y90350D01*
X154650Y620650D02*
X161000Y623825D01*
X167350Y620650D01*
X164175Y627000D02*
X167350Y620650D01*
X164175Y627000D02*
X167350Y633350D01*
X161000Y630175D02*
X167350Y633350D01*
X154650D02*
X161000Y630175D01*
X154650Y633350D02*
X157825Y627000D01*
X154650Y620650D02*
X157825Y627000D01*
X226650Y620650D02*
X233000Y623825D01*
X239350Y620650D01*
X236175Y627000D02*
X239350Y620650D01*
X236175Y627000D02*
X239350Y633350D01*
X233000Y630175D02*
X239350Y633350D01*
X226650D02*
X233000Y630175D01*
X226650Y633350D02*
X229825Y627000D01*
X226650Y620650D02*
X229825Y627000D01*
X471325Y56325D02*
X474500Y53150D01*
X468150Y56325D02*
X471325D01*
X468150D02*
X471325Y59500D01*
X468150Y62675D02*
X471325Y59500D01*
X468150Y62675D02*
X471325D01*
X474500Y65850D01*
X477675Y62675D01*
X480850D01*
X477675Y59500D02*
X480850Y62675D01*
X477675Y59500D02*
X480850Y56325D01*
X477675D02*
X480850D01*
X474500Y53150D02*
X477675Y56325D01*
X496325D02*
X499500Y53150D01*
X493150Y56325D02*
X496325D01*
X493150D02*
X496325Y59500D01*
X493150Y62675D02*
X496325Y59500D01*
X493150Y62675D02*
X496325D01*
X499500Y65850D01*
X502675Y62675D01*
X505850D01*
X502675Y59500D02*
X505850Y62675D01*
X502675Y59500D02*
X505850Y56325D01*
X502675D02*
X505850D01*
X499500Y53150D02*
X502675Y56325D01*
X521325D02*
X524500Y53150D01*
X518150Y56325D02*
X521325D01*
X518150D02*
X521325Y59500D01*
X518150Y62675D02*
X521325Y59500D01*
X518150Y62675D02*
X521325D01*
X524500Y65850D01*
X527675Y62675D01*
X530850D01*
X527675Y59500D02*
X530850Y62675D01*
X527675Y59500D02*
X530850Y56325D01*
X527675D02*
X530850D01*
X524500Y53150D02*
X527675Y56325D01*
X149150Y500650D02*
Y503825D01*
X152325Y507000D01*
X149150Y510175D02*
X152325Y507000D01*
X149150Y510175D02*
Y513350D01*
X152325D01*
X155500Y510175D01*
X158675Y513350D01*
X161850D01*
Y510175D02*
Y513350D01*
X158675Y507000D02*
X161850Y510175D01*
X158675Y507000D02*
X161850Y503825D01*
Y500650D02*
Y503825D01*
X158675Y500650D02*
X161850D01*
X155500Y503825D02*
X158675Y500650D01*
X152325D02*
X155500Y503825D01*
X149150Y500650D02*
X152325D01*
X227150D02*
Y503825D01*
X230325Y507000D01*
X227150Y510175D02*
X230325Y507000D01*
X227150Y510175D02*
Y513350D01*
X230325D01*
X233500Y510175D01*
X236675Y513350D01*
X239850D01*
Y510175D02*
Y513350D01*
X236675Y507000D02*
X239850Y510175D01*
X236675Y507000D02*
X239850Y503825D01*
Y500650D02*
Y503825D01*
X236675Y500650D02*
X239850D01*
X233500Y503825D02*
X236675Y500650D01*
X230325D02*
X233500Y503825D01*
X227150Y500650D02*
X230325D01*
X351325Y56325D02*
X354500Y53150D01*
X348150Y56325D02*
X351325D01*
X348150D02*
X351325Y59500D01*
X348150Y62675D02*
X351325Y59500D01*
X348150Y62675D02*
X351325D01*
X354500Y65850D01*
X357675Y62675D01*
X360850D01*
X357675Y59500D02*
X360850Y62675D01*
X357675Y59500D02*
X360850Y56325D01*
X357675D02*
X360850D01*
X354500Y53150D02*
X357675Y56325D01*
X376325D02*
X379500Y53150D01*
X373150Y56325D02*
X376325D01*
X373150D02*
X376325Y59500D01*
X373150Y62675D02*
X376325Y59500D01*
X373150Y62675D02*
X376325D01*
X379500Y65850D01*
X382675Y62675D01*
X385850D01*
X382675Y59500D02*
X385850Y62675D01*
X382675Y59500D02*
X385850Y56325D01*
X382675D02*
X385850D01*
X379500Y53150D02*
X382675Y56325D01*
X401325D02*
X404500Y53150D01*
X398150Y56325D02*
X401325D01*
X398150D02*
X401325Y59500D01*
X398150Y62675D02*
X401325Y59500D01*
X398150Y62675D02*
X401325D01*
X404500Y65850D01*
X407675Y62675D01*
X410850D01*
X407675Y59500D02*
X410850Y62675D01*
X407675Y59500D02*
X410850Y56325D01*
X407675D02*
X410850D01*
X404500Y53150D02*
X407675Y56325D01*
X436650Y620650D02*
X443000Y623825D01*
X449350Y620650D01*
X446175Y627000D02*
X449350Y620650D01*
X446175Y627000D02*
X449350Y633350D01*
X443000Y630175D02*
X449350Y633350D01*
X436650D02*
X443000Y630175D01*
X436650Y633350D02*
X439825Y627000D01*
X436650Y620650D02*
X439825Y627000D01*
X364650Y620650D02*
X371000Y623825D01*
X377350Y620650D01*
X374175Y627000D02*
X377350Y620650D01*
X374175Y627000D02*
X377350Y633350D01*
X371000Y630175D02*
X377350Y633350D01*
X364650D02*
X371000Y630175D01*
X364650Y633350D02*
X367825Y627000D01*
X364650Y620650D02*
X367825Y627000D01*
X436650Y520650D02*
X443000Y523825D01*
X449350Y520650D01*
X446175Y527000D02*
X449350Y520650D01*
X446175Y527000D02*
X449350Y533350D01*
X443000Y530175D02*
X449350Y533350D01*
X436650D02*
X443000Y530175D01*
X436650Y533350D02*
X439825Y527000D01*
X436650Y520650D02*
X439825Y527000D01*
X508650Y520650D02*
X515000Y523825D01*
X521350Y520650D01*
X518175Y527000D02*
X521350Y520650D01*
X518175Y527000D02*
X521350Y533350D01*
X515000Y530175D02*
X521350Y533350D01*
X508650D02*
X515000Y530175D01*
X508650Y533350D02*
X511825Y527000D01*
X508650Y520650D02*
X511825Y527000D01*
D13*
X1084025Y363502D02*
G03*
X1084025Y363502I-8467J0D01*
G01*
X1080639Y249202D02*
G03*
X1080639Y249202I-5080J0D01*
G01*
X1084025D02*
G03*
X1084025Y249202I-8467J0D01*
G01*
X1067092Y439702D02*
X1075559Y431235D01*
X1084025Y439702D01*
X1075559Y448168D02*
X1084025Y439702D01*
X1067092D02*
X1075559Y448168D01*
X1067092Y397368D02*
X1071325D01*
X1067092D02*
Y405835D01*
X1071325D01*
Y410068D01*
X1079792D01*
Y405835D02*
Y410068D01*
Y405835D02*
X1084025D01*
Y397368D02*
Y405835D01*
X1079792Y397368D02*
X1084025D01*
X1079792Y393135D02*
Y397368D01*
X1071325Y393135D02*
X1079792D01*
X1071325D02*
Y397368D01*
Y321168D02*
X1075559Y316935D01*
X1067092Y321168D02*
X1071325D01*
X1067092D02*
X1071325Y325402D01*
X1067092Y329635D02*
X1071325Y325402D01*
X1067092Y329635D02*
X1071325D01*
X1075559Y333868D01*
X1079792Y329635D01*
X1084025D01*
X1079792Y325402D02*
X1084025Y329635D01*
X1079792Y325402D02*
X1084025Y321168D01*
X1079792D02*
X1084025D01*
X1075559Y316935D02*
X1079792Y321168D01*
X1067092Y278835D02*
X1084025D01*
Y295768D01*
X1067092D02*
X1084025D01*
X1067092Y278835D02*
Y295768D01*
Y202635D02*
Y206868D01*
X1071325Y211102D01*
X1067092Y215335D02*
X1071325Y211102D01*
X1067092Y215335D02*
Y219568D01*
X1071325D01*
X1075559Y215335D01*
X1079792Y219568D01*
X1084025D01*
Y215335D02*
Y219568D01*
X1079792Y211102D02*
X1084025Y215335D01*
X1079792Y211102D02*
X1084025Y206868D01*
Y202635D02*
Y206868D01*
X1079792Y202635D02*
X1084025D01*
X1075559Y206868D02*
X1079792Y202635D01*
X1071325D02*
X1075559Y206868D01*
X1067092Y202635D02*
X1071325D01*
X1075559Y167922D02*
X1080639Y178082D01*
X1070479D02*
X1080639D01*
X1070479D02*
X1075559Y167922D01*
Y164535D02*
X1084025Y181468D01*
X1067092D02*
X1084025D01*
X1067092D02*
X1075559Y164535D01*
X1067092Y126435D02*
X1075559Y130668D01*
X1084025Y126435D01*
X1079792Y134902D02*
X1084025Y126435D01*
X1079792Y134902D02*
X1084025Y143368D01*
X1075559Y139135D02*
X1084025Y143368D01*
X1067092D02*
X1075559Y139135D01*
X1067092Y143368D02*
X1071325Y134902D01*
X1067092Y126435D02*
X1071325Y134902D01*
X1771046Y446470D02*
Y436313D01*
X1776124Y431235D01*
X1781203Y436313D01*
Y446470D01*
X1786281Y431235D02*
X1791359D01*
X1788820D01*
Y441392D01*
X1786281D01*
X1801516D02*
X1806594D01*
X1809133Y438853D01*
Y431235D01*
X1801516D01*
X1798977Y433774D01*
X1801516Y436313D01*
X1809133D01*
X1771046Y393135D02*
Y408370D01*
X1778663D01*
X1781203Y405831D01*
Y400752D01*
X1778663Y398213D01*
X1771046D01*
X1788820Y403292D02*
X1793898D01*
X1796438Y400752D01*
Y393135D01*
X1788820D01*
X1786281Y395674D01*
X1788820Y398213D01*
X1796438D01*
X1811673Y408370D02*
Y393135D01*
X1804055D01*
X1801516Y395674D01*
Y400752D01*
X1804055Y403292D01*
X1811673D01*
X1771046Y355035D02*
Y370270D01*
X1778663D01*
X1781203Y367731D01*
Y362653D01*
X1778663Y360113D01*
X1771046D01*
X1788820Y365192D02*
X1793898D01*
X1796438Y362653D01*
Y355035D01*
X1788820D01*
X1786281Y357574D01*
X1788820Y360113D01*
X1796438D01*
X1811673Y370270D02*
Y355035D01*
X1804055D01*
X1801516Y357574D01*
Y362653D01*
X1804055Y365192D01*
X1811673D01*
X1771046Y316935D02*
Y332170D01*
X1778663D01*
X1781203Y329631D01*
Y324552D01*
X1778663Y322013D01*
X1771046D01*
X1788820Y327092D02*
X1793898D01*
X1796438Y324552D01*
Y316935D01*
X1788820D01*
X1786281Y319474D01*
X1788820Y322013D01*
X1796438D01*
X1811673Y332170D02*
Y316935D01*
X1804055D01*
X1801516Y319474D01*
Y324552D01*
X1804055Y327092D01*
X1811673D01*
X1771046Y278835D02*
Y294070D01*
X1778663D01*
X1781203Y291531D01*
Y286453D01*
X1778663Y283913D01*
X1771046D01*
X1788820Y288992D02*
X1793898D01*
X1796438Y286453D01*
Y278835D01*
X1788820D01*
X1786281Y281374D01*
X1788820Y283913D01*
X1796438D01*
X1811673Y294070D02*
Y278835D01*
X1804055D01*
X1801516Y281374D01*
Y286453D01*
X1804055Y288992D01*
X1811673D01*
X1771046Y240735D02*
Y255970D01*
X1778663D01*
X1781203Y253431D01*
Y248353D01*
X1778663Y245813D01*
X1771046D01*
X1788820Y250892D02*
X1793898D01*
X1796438Y248353D01*
Y240735D01*
X1788820D01*
X1786281Y243274D01*
X1788820Y245813D01*
X1796438D01*
X1811673Y255970D02*
Y240735D01*
X1804055D01*
X1801516Y243274D01*
Y248353D01*
X1804055Y250892D01*
X1811673D01*
X1771046Y202635D02*
Y217870D01*
X1778663D01*
X1781203Y215331D01*
Y210252D01*
X1778663Y207713D01*
X1771046D01*
X1788820Y212792D02*
X1793898D01*
X1796438Y210252D01*
Y202635D01*
X1788820D01*
X1786281Y205174D01*
X1788820Y207713D01*
X1796438D01*
X1811673Y217870D02*
Y202635D01*
X1804055D01*
X1801516Y205174D01*
Y210252D01*
X1804055Y212792D01*
X1811673D01*
X1771046Y164535D02*
Y179770D01*
X1778663D01*
X1781203Y177231D01*
Y172153D01*
X1778663Y169613D01*
X1771046D01*
X1788820Y174692D02*
X1793898D01*
X1796438Y172153D01*
Y164535D01*
X1788820D01*
X1786281Y167074D01*
X1788820Y169613D01*
X1796438D01*
X1811673Y179770D02*
Y164535D01*
X1804055D01*
X1801516Y167074D01*
Y172153D01*
X1804055Y174692D01*
X1811673D01*
X1771046Y126435D02*
Y141670D01*
X1778663D01*
X1781203Y139131D01*
Y134052D01*
X1778663Y131513D01*
X1771046D01*
X1788820Y136592D02*
X1793898D01*
X1796438Y134052D01*
Y126435D01*
X1788820D01*
X1786281Y128974D01*
X1788820Y131513D01*
X1796438D01*
X1811673Y141670D02*
Y126435D01*
X1804055D01*
X1801516Y128974D01*
Y134052D01*
X1804055Y136592D01*
X1811673D01*
X1642553Y431235D02*
Y446470D01*
X1650171D01*
X1652710Y443931D01*
Y438853D01*
X1650171Y436313D01*
X1642553D01*
X1657788Y446470D02*
X1667945D01*
X1662867D01*
Y431235D01*
X1673024Y446470D02*
Y431235D01*
Y438853D01*
X1683180D01*
Y446470D01*
Y431235D01*
X1642553Y393135D02*
Y408370D01*
X1650171D01*
X1652710Y405831D01*
Y400752D01*
X1650171Y398213D01*
X1642553D01*
X1657788Y408370D02*
X1667945D01*
X1662867D01*
Y393135D01*
X1673024Y408370D02*
Y393135D01*
Y400752D01*
X1683180D01*
Y408370D01*
Y393135D01*
X1642553Y355035D02*
Y370270D01*
X1650171D01*
X1652710Y367731D01*
Y362653D01*
X1650171Y360113D01*
X1642553D01*
X1657788Y370270D02*
X1667945D01*
X1662867D01*
Y355035D01*
X1673024Y370270D02*
Y355035D01*
Y362653D01*
X1683180D01*
Y370270D01*
Y355035D01*
X1642553Y316935D02*
Y332170D01*
X1650171D01*
X1652710Y329631D01*
Y324552D01*
X1650171Y322013D01*
X1642553D01*
X1657788Y332170D02*
X1667945D01*
X1662867D01*
Y316935D01*
X1673024Y332170D02*
Y316935D01*
Y324552D01*
X1683180D01*
Y332170D01*
Y316935D01*
X1642553Y278835D02*
Y294070D01*
X1650171D01*
X1652710Y291531D01*
Y286453D01*
X1650171Y283913D01*
X1642553D01*
X1657788Y294070D02*
X1667945D01*
X1662867D01*
Y278835D01*
X1673024Y294070D02*
Y278835D01*
Y286453D01*
X1683180D01*
Y294070D01*
Y278835D01*
X1642553Y240735D02*
Y255970D01*
X1650171D01*
X1652710Y253431D01*
Y248353D01*
X1650171Y245813D01*
X1642553D01*
X1657788Y255970D02*
X1667945D01*
X1662867D01*
Y240735D01*
X1673024Y255970D02*
Y240735D01*
Y248353D01*
X1683180D01*
Y255970D01*
Y240735D01*
X1642553Y202635D02*
Y217870D01*
X1650171D01*
X1652710Y215331D01*
Y210252D01*
X1650171Y207713D01*
X1642553D01*
X1657788Y217870D02*
X1667945D01*
X1662867D01*
Y202635D01*
X1673024Y217870D02*
Y202635D01*
Y210252D01*
X1683180D01*
Y217870D01*
Y202635D01*
X1642553Y164535D02*
Y179770D01*
X1650171D01*
X1652710Y177231D01*
Y172153D01*
X1650171Y169613D01*
X1642553D01*
X1657788Y179770D02*
X1667945D01*
X1662867D01*
Y164535D01*
X1673024Y179770D02*
Y164535D01*
Y172153D01*
X1683180D01*
Y179770D01*
Y164535D01*
X1642553Y126435D02*
Y141670D01*
X1650171D01*
X1652710Y139131D01*
Y134052D01*
X1650171Y131513D01*
X1642553D01*
X1657788Y141670D02*
X1667945D01*
X1662867D01*
Y126435D01*
X1673024Y141670D02*
Y126435D01*
Y134052D01*
X1683180D01*
Y141670D01*
Y126435D01*
X1353078Y443931D02*
X1355617Y446470D01*
X1360695D01*
X1363235Y443931D01*
Y433774D01*
X1360695Y431235D01*
X1355617D01*
X1353078Y433774D01*
Y443931D01*
X1368313Y431235D02*
Y433774D01*
X1370852D01*
Y431235D01*
X1368313D01*
X1381009Y446470D02*
X1391166D01*
Y443931D01*
X1381009Y433774D01*
Y431235D01*
X1396244D02*
X1401322D01*
X1398783D01*
Y446470D01*
X1396244Y443931D01*
X1408940Y431235D02*
X1414018D01*
X1411479D01*
Y446470D01*
X1408940Y443931D01*
X1421636Y431235D02*
Y441392D01*
X1424175D01*
X1426714Y438853D01*
Y431235D01*
Y438853D01*
X1429253Y441392D01*
X1431792Y438853D01*
Y431235D01*
X1436871D02*
Y441392D01*
X1439410D01*
X1441949Y438853D01*
Y431235D01*
Y438853D01*
X1444488Y441392D01*
X1447028Y438853D01*
Y431235D01*
X1472419D02*
X1467341Y436313D01*
Y441392D01*
X1472419Y446470D01*
X1490194Y431235D02*
X1480037D01*
X1490194Y441392D01*
Y443931D01*
X1487654Y446470D01*
X1482576D01*
X1480037Y443931D01*
X1495272D02*
X1497811Y446470D01*
X1502890D01*
X1505429Y443931D01*
Y441392D01*
X1502890Y438853D01*
X1505429Y436313D01*
Y433774D01*
X1502890Y431235D01*
X1497811D01*
X1495272Y433774D01*
Y436313D01*
X1497811Y438853D01*
X1495272Y441392D01*
Y443931D01*
X1497811Y438853D02*
X1502890D01*
X1510507Y431235D02*
Y433774D01*
X1513046D01*
Y431235D01*
X1510507D01*
X1523203Y443931D02*
X1525742Y446470D01*
X1530820D01*
X1533360Y443931D01*
Y433774D01*
X1530820Y431235D01*
X1525742D01*
X1523203Y433774D01*
Y443931D01*
X1538438D02*
X1540977Y446470D01*
X1546055D01*
X1548595Y443931D01*
Y433774D01*
X1546055Y431235D01*
X1540977D01*
X1538438Y433774D01*
Y443931D01*
X1553673Y431235D02*
Y441392D01*
X1556212D01*
X1558751Y438853D01*
Y431235D01*
Y438853D01*
X1561291Y441392D01*
X1563830Y438853D01*
Y431235D01*
X1568908D02*
X1573987D01*
X1571447D01*
Y441392D01*
X1568908D01*
X1581604Y431235D02*
X1586682D01*
X1584143D01*
Y446470D01*
X1581604D01*
X1594300Y431235D02*
X1599378Y436313D01*
Y441392D01*
X1594300Y446470D01*
X1353078Y405831D02*
X1355617Y408370D01*
X1360695D01*
X1363235Y405831D01*
Y395674D01*
X1360695Y393135D01*
X1355617D01*
X1353078Y395674D01*
Y405831D01*
X1368313Y393135D02*
Y395674D01*
X1370852D01*
Y393135D01*
X1368313D01*
X1381009Y405831D02*
X1383548Y408370D01*
X1388627D01*
X1391166Y405831D01*
Y403292D01*
X1388627Y400752D01*
X1391166Y398213D01*
Y395674D01*
X1388627Y393135D01*
X1383548D01*
X1381009Y395674D01*
Y398213D01*
X1383548Y400752D01*
X1381009Y403292D01*
Y405831D01*
X1383548Y400752D02*
X1388627D01*
X1396244Y405831D02*
X1398783Y408370D01*
X1403862D01*
X1406401Y405831D01*
Y395674D01*
X1403862Y393135D01*
X1398783D01*
X1396244Y395674D01*
Y405831D01*
X1411479D02*
X1414018Y408370D01*
X1419097D01*
X1421636Y405831D01*
Y395674D01*
X1419097Y393135D01*
X1414018D01*
X1411479Y395674D01*
Y405831D01*
X1426714Y393135D02*
Y403292D01*
X1429253D01*
X1431792Y400752D01*
Y393135D01*
Y400752D01*
X1434332Y403292D01*
X1436871Y400752D01*
Y393135D01*
X1441949D02*
Y403292D01*
X1444488D01*
X1447028Y400752D01*
Y393135D01*
Y400752D01*
X1449567Y403292D01*
X1452106Y400752D01*
Y393135D01*
X1477498D02*
X1472419Y398213D01*
Y403292D01*
X1477498Y408370D01*
X1485115Y405831D02*
X1487655Y408370D01*
X1492733D01*
X1495272Y405831D01*
Y403292D01*
X1492733Y400752D01*
X1490194D01*
X1492733D01*
X1495272Y398213D01*
Y395674D01*
X1492733Y393135D01*
X1487655D01*
X1485115Y395674D01*
X1500350Y393135D02*
X1505429D01*
X1502890D01*
Y408370D01*
X1500350Y405831D01*
X1513046Y393135D02*
Y395674D01*
X1515585D01*
Y393135D01*
X1513046D01*
X1535899Y408370D02*
X1525742D01*
Y400752D01*
X1530820Y403292D01*
X1533360D01*
X1535899Y400752D01*
Y395674D01*
X1533360Y393135D01*
X1528281D01*
X1525742Y395674D01*
X1540977Y405831D02*
X1543516Y408370D01*
X1548595D01*
X1551134Y405831D01*
Y395674D01*
X1548595Y393135D01*
X1543516D01*
X1540977Y395674D01*
Y405831D01*
X1556212Y393135D02*
Y403292D01*
X1558751D01*
X1561291Y400752D01*
Y393135D01*
Y400752D01*
X1563830Y403292D01*
X1566369Y400752D01*
Y393135D01*
X1571447D02*
X1576526D01*
X1573987D01*
Y403292D01*
X1571447D01*
X1584143Y393135D02*
X1589222D01*
X1586682D01*
Y408370D01*
X1584143D01*
X1596839Y393135D02*
X1601917Y398213D01*
Y403292D01*
X1596839Y408370D01*
X1353078Y367731D02*
X1355617Y370270D01*
X1360695D01*
X1363235Y367731D01*
Y357574D01*
X1360695Y355035D01*
X1355617D01*
X1353078Y357574D01*
Y367731D01*
X1368313Y355035D02*
Y357574D01*
X1370852D01*
Y355035D01*
X1368313D01*
X1381009Y367731D02*
X1383548Y370270D01*
X1388627D01*
X1391166Y367731D01*
Y365192D01*
X1388627Y362653D01*
X1391166Y360113D01*
Y357574D01*
X1388627Y355035D01*
X1383548D01*
X1381009Y357574D01*
Y360113D01*
X1383548Y362653D01*
X1381009Y365192D01*
Y367731D01*
X1383548Y362653D02*
X1388627D01*
X1406401Y370270D02*
X1396244D01*
Y362653D01*
X1401322Y365192D01*
X1403862D01*
X1406401Y362653D01*
Y357574D01*
X1403862Y355035D01*
X1398783D01*
X1396244Y357574D01*
X1411479Y367731D02*
X1414018Y370270D01*
X1419097D01*
X1421636Y367731D01*
Y357574D01*
X1419097Y355035D01*
X1414018D01*
X1411479Y357574D01*
Y367731D01*
X1426714Y355035D02*
Y365192D01*
X1429253D01*
X1431792Y362653D01*
Y355035D01*
Y362653D01*
X1434332Y365192D01*
X1436871Y362653D01*
Y355035D01*
X1441949D02*
Y365192D01*
X1444488D01*
X1447028Y362653D01*
Y355035D01*
Y362653D01*
X1449567Y365192D01*
X1452106Y362653D01*
Y355035D01*
X1477498D02*
X1472419Y360113D01*
Y365192D01*
X1477498Y370270D01*
X1485115Y367731D02*
X1487655Y370270D01*
X1492733D01*
X1495272Y367731D01*
Y365192D01*
X1492733Y362653D01*
X1490194D01*
X1492733D01*
X1495272Y360113D01*
Y357574D01*
X1492733Y355035D01*
X1487655D01*
X1485115Y357574D01*
X1500350Y367731D02*
X1502890Y370270D01*
X1507968D01*
X1510507Y367731D01*
Y365192D01*
X1507968Y362653D01*
X1505429D01*
X1507968D01*
X1510507Y360113D01*
Y357574D01*
X1507968Y355035D01*
X1502890D01*
X1500350Y357574D01*
X1515585Y355035D02*
Y357574D01*
X1518125D01*
Y355035D01*
X1515585D01*
X1535899D02*
Y370270D01*
X1528281Y362653D01*
X1538438D01*
X1543516Y370270D02*
X1553673D01*
Y367731D01*
X1543516Y357574D01*
Y355035D01*
X1558751D02*
Y365192D01*
X1561291D01*
X1563830Y362653D01*
Y355035D01*
Y362653D01*
X1566369Y365192D01*
X1568908Y362653D01*
Y355035D01*
X1573987D02*
X1579065D01*
X1576526D01*
Y365192D01*
X1573987D01*
X1586682Y355035D02*
X1591761D01*
X1589222D01*
Y370270D01*
X1586682D01*
X1599378Y355035D02*
X1604457Y360113D01*
Y365192D01*
X1599378Y370270D01*
X1353078Y329631D02*
X1355617Y332170D01*
X1360695D01*
X1363235Y329631D01*
Y319474D01*
X1360695Y316935D01*
X1355617D01*
X1353078Y319474D01*
Y329631D01*
X1368313Y316935D02*
Y319474D01*
X1370852D01*
Y316935D01*
X1368313D01*
X1381009Y319474D02*
X1383548Y316935D01*
X1388627D01*
X1391166Y319474D01*
Y329631D01*
X1388627Y332170D01*
X1383548D01*
X1381009Y329631D01*
Y327092D01*
X1383548Y324552D01*
X1391166D01*
X1396244Y329631D02*
X1398783Y332170D01*
X1403862D01*
X1406401Y329631D01*
Y319474D01*
X1403862Y316935D01*
X1398783D01*
X1396244Y319474D01*
Y329631D01*
X1411479D02*
X1414018Y332170D01*
X1419097D01*
X1421636Y329631D01*
Y319474D01*
X1419097Y316935D01*
X1414018D01*
X1411479Y319474D01*
Y329631D01*
X1426714Y316935D02*
Y327092D01*
X1429253D01*
X1431792Y324552D01*
Y316935D01*
Y324552D01*
X1434332Y327092D01*
X1436871Y324552D01*
Y316935D01*
X1441949D02*
Y327092D01*
X1444488D01*
X1447028Y324552D01*
Y316935D01*
Y324552D01*
X1449567Y327092D01*
X1452106Y324552D01*
Y316935D01*
X1477498D02*
X1472419Y322013D01*
Y327092D01*
X1477498Y332170D01*
X1485115Y329631D02*
X1487655Y332170D01*
X1492733D01*
X1495272Y329631D01*
Y327092D01*
X1492733Y324552D01*
X1490194D01*
X1492733D01*
X1495272Y322013D01*
Y319474D01*
X1492733Y316935D01*
X1487655D01*
X1485115Y319474D01*
X1510507Y332170D02*
X1500350D01*
Y324552D01*
X1505429Y327092D01*
X1507968D01*
X1510507Y324552D01*
Y319474D01*
X1507968Y316935D01*
X1502890D01*
X1500350Y319474D01*
X1515585Y316935D02*
Y319474D01*
X1518125D01*
Y316935D01*
X1515585D01*
X1535899D02*
Y332170D01*
X1528281Y324552D01*
X1538438D01*
X1543516Y329631D02*
X1546056Y332170D01*
X1551134D01*
X1553673Y329631D01*
Y327092D01*
X1551134Y324552D01*
X1548595D01*
X1551134D01*
X1553673Y322013D01*
Y319474D01*
X1551134Y316935D01*
X1546056D01*
X1543516Y319474D01*
X1558751Y316935D02*
Y327092D01*
X1561291D01*
X1563830Y324552D01*
Y316935D01*
Y324552D01*
X1566369Y327092D01*
X1568908Y324552D01*
Y316935D01*
X1573987D02*
X1579065D01*
X1576526D01*
Y327092D01*
X1573987D01*
X1586682Y316935D02*
X1591761D01*
X1589222D01*
Y332170D01*
X1586682D01*
X1599378Y316935D02*
X1604457Y322013D01*
Y327092D01*
X1599378Y332170D01*
X1353078Y278835D02*
X1358156D01*
X1355617D01*
Y294070D01*
X1353078Y291531D01*
X1365774Y278835D02*
Y281374D01*
X1368313D01*
Y278835D01*
X1365774D01*
X1378470Y291531D02*
X1381009Y294070D01*
X1386087D01*
X1388627Y291531D01*
Y281374D01*
X1386087Y278835D01*
X1381009D01*
X1378470Y281374D01*
Y291531D01*
X1393705D02*
X1396244Y294070D01*
X1401322D01*
X1403862Y291531D01*
Y281374D01*
X1401322Y278835D01*
X1396244D01*
X1393705Y281374D01*
Y291531D01*
X1408940D02*
X1411479Y294070D01*
X1416557D01*
X1419097Y291531D01*
Y281374D01*
X1416557Y278835D01*
X1411479D01*
X1408940Y281374D01*
Y291531D01*
X1424175Y278835D02*
Y288992D01*
X1426714D01*
X1429253Y286453D01*
Y278835D01*
Y286453D01*
X1431792Y288992D01*
X1434332Y286453D01*
Y278835D01*
X1439410D02*
Y288992D01*
X1441949D01*
X1444488Y286453D01*
Y278835D01*
Y286453D01*
X1447028Y288992D01*
X1449567Y286453D01*
Y278835D01*
X1474958D02*
X1469880Y283913D01*
Y288992D01*
X1474958Y294070D01*
X1482576Y291531D02*
X1485115Y294070D01*
X1490194D01*
X1492733Y291531D01*
Y288992D01*
X1490194Y286453D01*
X1487654D01*
X1490194D01*
X1492733Y283913D01*
Y281374D01*
X1490194Y278835D01*
X1485115D01*
X1482576Y281374D01*
X1497811D02*
X1500350Y278835D01*
X1505429D01*
X1507968Y281374D01*
Y291531D01*
X1505429Y294070D01*
X1500350D01*
X1497811Y291531D01*
Y288992D01*
X1500350Y286453D01*
X1507968D01*
X1513046Y278835D02*
Y281374D01*
X1515585D01*
Y278835D01*
X1513046D01*
X1525742Y291531D02*
X1528281Y294070D01*
X1533360D01*
X1535899Y291531D01*
Y288992D01*
X1533360Y286453D01*
X1530820D01*
X1533360D01*
X1535899Y283913D01*
Y281374D01*
X1533360Y278835D01*
X1528281D01*
X1525742Y281374D01*
X1540977Y294070D02*
X1551134D01*
Y291531D01*
X1540977Y281374D01*
Y278835D01*
X1556212D02*
Y288992D01*
X1558751D01*
X1561291Y286453D01*
Y278835D01*
Y286453D01*
X1563830Y288992D01*
X1566369Y286453D01*
Y278835D01*
X1571447D02*
X1576526D01*
X1573987D01*
Y288992D01*
X1571447D01*
X1584143Y278835D02*
X1589222D01*
X1586682D01*
Y294070D01*
X1584143D01*
X1596839Y278835D02*
X1601917Y283913D01*
Y288992D01*
X1596839Y294070D01*
X1353078Y240735D02*
X1358156D01*
X1355617D01*
Y255970D01*
X1353078Y253431D01*
X1365774Y240735D02*
Y243274D01*
X1368313D01*
Y240735D01*
X1365774D01*
X1378470D02*
X1383548D01*
X1381009D01*
Y255970D01*
X1378470Y253431D01*
X1391166D02*
X1393705Y255970D01*
X1398783D01*
X1401322Y253431D01*
Y243274D01*
X1398783Y240735D01*
X1393705D01*
X1391166Y243274D01*
Y253431D01*
X1406401D02*
X1408940Y255970D01*
X1414018D01*
X1416557Y253431D01*
Y243274D01*
X1414018Y240735D01*
X1408940D01*
X1406401Y243274D01*
Y253431D01*
X1421636Y240735D02*
Y250892D01*
X1424175D01*
X1426714Y248353D01*
Y240735D01*
Y248353D01*
X1429253Y250892D01*
X1431792Y248353D01*
Y240735D01*
X1436871D02*
Y250892D01*
X1439410D01*
X1441949Y248353D01*
Y240735D01*
Y248353D01*
X1444488Y250892D01*
X1447028Y248353D01*
Y240735D01*
X1472419D02*
X1467341Y245813D01*
Y250892D01*
X1472419Y255970D01*
X1487654Y240735D02*
Y255970D01*
X1480037Y248353D01*
X1490194D01*
X1495272Y253431D02*
X1497811Y255970D01*
X1502890D01*
X1505429Y253431D01*
Y250892D01*
X1502890Y248353D01*
X1500350D01*
X1502890D01*
X1505429Y245813D01*
Y243274D01*
X1502890Y240735D01*
X1497811D01*
X1495272Y243274D01*
X1510507Y240735D02*
Y243274D01*
X1513046D01*
Y240735D01*
X1510507D01*
X1523203Y253431D02*
X1525742Y255970D01*
X1530820D01*
X1533360Y253431D01*
Y250892D01*
X1530820Y248353D01*
X1528281D01*
X1530820D01*
X1533360Y245813D01*
Y243274D01*
X1530820Y240735D01*
X1525742D01*
X1523203Y243274D01*
X1538438Y240735D02*
X1543516D01*
X1540977D01*
Y255970D01*
X1538438Y253431D01*
X1551134Y240735D02*
Y250892D01*
X1553673D01*
X1556212Y248353D01*
Y240735D01*
Y248353D01*
X1558751Y250892D01*
X1561291Y248353D01*
Y240735D01*
X1566369D02*
X1571447D01*
X1568908D01*
Y250892D01*
X1566369D01*
X1579065Y240735D02*
X1584143D01*
X1581604D01*
Y255970D01*
X1579065D01*
X1591761Y240735D02*
X1596839Y245813D01*
Y250892D01*
X1591761Y255970D01*
X1353078Y202635D02*
X1358156D01*
X1355617D01*
Y217870D01*
X1353078Y215331D01*
X1365774Y202635D02*
Y205174D01*
X1368313D01*
Y202635D01*
X1365774D01*
X1378470D02*
X1383548D01*
X1381009D01*
Y217870D01*
X1378470Y215331D01*
X1401322Y217870D02*
X1391166D01*
Y210252D01*
X1396244Y212792D01*
X1398783D01*
X1401322Y210252D01*
Y205174D01*
X1398783Y202635D01*
X1393705D01*
X1391166Y205174D01*
X1406401Y215331D02*
X1408940Y217870D01*
X1414018D01*
X1416557Y215331D01*
Y205174D01*
X1414018Y202635D01*
X1408940D01*
X1406401Y205174D01*
Y215331D01*
X1421636Y202635D02*
Y212792D01*
X1424175D01*
X1426714Y210252D01*
Y202635D01*
Y210252D01*
X1429253Y212792D01*
X1431792Y210252D01*
Y202635D01*
X1436871D02*
Y212792D01*
X1439410D01*
X1441949Y210252D01*
Y202635D01*
Y210252D01*
X1444488Y212792D01*
X1447028Y210252D01*
Y202635D01*
X1472419D02*
X1467341Y207713D01*
Y212792D01*
X1472419Y217870D01*
X1487654Y202635D02*
Y217870D01*
X1480037Y210252D01*
X1490194D01*
X1505429Y217870D02*
X1495272D01*
Y210252D01*
X1500350Y212792D01*
X1502890D01*
X1505429Y210252D01*
Y205174D01*
X1502890Y202635D01*
X1497811D01*
X1495272Y205174D01*
X1510507Y202635D02*
Y205174D01*
X1513046D01*
Y202635D01*
X1510507D01*
X1533360D02*
X1523203D01*
X1533360Y212792D01*
Y215331D01*
X1530820Y217870D01*
X1525742D01*
X1523203Y215331D01*
X1538438D02*
X1540977Y217870D01*
X1546055D01*
X1548595Y215331D01*
Y212792D01*
X1546055Y210252D01*
X1548595Y207713D01*
Y205174D01*
X1546055Y202635D01*
X1540977D01*
X1538438Y205174D01*
Y207713D01*
X1540977Y210252D01*
X1538438Y212792D01*
Y215331D01*
X1540977Y210252D02*
X1546055D01*
X1553673Y202635D02*
Y212792D01*
X1556212D01*
X1558751Y210252D01*
Y202635D01*
Y210252D01*
X1561291Y212792D01*
X1563830Y210252D01*
Y202635D01*
X1568908D02*
X1573987D01*
X1571447D01*
Y212792D01*
X1568908D01*
X1581604Y202635D02*
X1586682D01*
X1584143D01*
Y217870D01*
X1581604D01*
X1594300Y202635D02*
X1599378Y207713D01*
Y212792D01*
X1594300Y217870D01*
X1353078Y177231D02*
X1355617Y179770D01*
X1360695D01*
X1363235Y177231D01*
Y174692D01*
X1360695Y172153D01*
X1358156D01*
X1360695D01*
X1363235Y169613D01*
Y167074D01*
X1360695Y164535D01*
X1355617D01*
X1353078Y167074D01*
X1368313Y164535D02*
Y167074D01*
X1370852D01*
Y164535D01*
X1368313D01*
X1381009Y177231D02*
X1383548Y179770D01*
X1388627D01*
X1391166Y177231D01*
Y167074D01*
X1388627Y164535D01*
X1383548D01*
X1381009Y167074D01*
Y177231D01*
X1396244D02*
X1398783Y179770D01*
X1403862D01*
X1406401Y177231D01*
Y167074D01*
X1403862Y164535D01*
X1398783D01*
X1396244Y167074D01*
Y177231D01*
X1411479D02*
X1414018Y179770D01*
X1419097D01*
X1421636Y177231D01*
Y167074D01*
X1419097Y164535D01*
X1414018D01*
X1411479Y167074D01*
Y177231D01*
X1426714Y164535D02*
Y174692D01*
X1429253D01*
X1431792Y172153D01*
Y164535D01*
Y172153D01*
X1434332Y174692D01*
X1436871Y172153D01*
Y164535D01*
X1441949D02*
Y174692D01*
X1444488D01*
X1447028Y172153D01*
Y164535D01*
Y172153D01*
X1449567Y174692D01*
X1452106Y172153D01*
Y164535D01*
X1477498D02*
X1472419Y169613D01*
Y174692D01*
X1477498Y179770D01*
X1485115Y164535D02*
X1490194D01*
X1487655D01*
Y179770D01*
X1485115Y177231D01*
X1497811Y164535D02*
X1502890D01*
X1500350D01*
Y179770D01*
X1497811Y177231D01*
X1510507D02*
X1513046Y179770D01*
X1518125D01*
X1520664Y177231D01*
Y174692D01*
X1518125Y172153D01*
X1520664Y169613D01*
Y167074D01*
X1518125Y164535D01*
X1513046D01*
X1510507Y167074D01*
Y169613D01*
X1513046Y172153D01*
X1510507Y174692D01*
Y177231D01*
X1513046Y172153D02*
X1518125D01*
X1525742Y164535D02*
Y167074D01*
X1528281D01*
Y164535D01*
X1525742D01*
X1538438D02*
X1543516D01*
X1540977D01*
Y179770D01*
X1538438Y177231D01*
X1551134Y164535D02*
X1556212D01*
X1553673D01*
Y179770D01*
X1551134Y177231D01*
X1563830Y164535D02*
Y174692D01*
X1566369D01*
X1568908Y172153D01*
Y164535D01*
Y172153D01*
X1571447Y174692D01*
X1573987Y172153D01*
Y164535D01*
X1579065D02*
X1584143D01*
X1581604D01*
Y174692D01*
X1579065D01*
X1591761Y164535D02*
X1596839D01*
X1594300D01*
Y179770D01*
X1591761D01*
X1604457Y164535D02*
X1609535Y169613D01*
Y174692D01*
X1604457Y179770D01*
X1360695Y126435D02*
Y141670D01*
X1353078Y134052D01*
X1363235D01*
X1368313Y126435D02*
Y128974D01*
X1370852D01*
Y126435D01*
X1368313D01*
X1391166Y141670D02*
X1381009D01*
Y134052D01*
X1386087Y136592D01*
X1388627D01*
X1391166Y134052D01*
Y128974D01*
X1388627Y126435D01*
X1383548D01*
X1381009Y128974D01*
X1406401Y141670D02*
X1396244D01*
Y134052D01*
X1401322Y136592D01*
X1403862D01*
X1406401Y134052D01*
Y128974D01*
X1403862Y126435D01*
X1398783D01*
X1396244Y128974D01*
X1411479Y139131D02*
X1414018Y141670D01*
X1419097D01*
X1421636Y139131D01*
Y128974D01*
X1419097Y126435D01*
X1414018D01*
X1411479Y128974D01*
Y139131D01*
X1426714Y126435D02*
Y136592D01*
X1429253D01*
X1431792Y134052D01*
Y126435D01*
Y134052D01*
X1434332Y136592D01*
X1436871Y134052D01*
Y126435D01*
X1441949D02*
Y136592D01*
X1444488D01*
X1447028Y134052D01*
Y126435D01*
Y134052D01*
X1449567Y136592D01*
X1452106Y134052D01*
Y126435D01*
X1477498D02*
X1472419Y131513D01*
Y136592D01*
X1477498Y141670D01*
X1485115Y126435D02*
X1490194D01*
X1487655D01*
Y141670D01*
X1485115Y139131D01*
X1497811Y141670D02*
X1507968D01*
Y139131D01*
X1497811Y128974D01*
Y126435D01*
X1513046Y128974D02*
X1515585Y126435D01*
X1520664D01*
X1523203Y128974D01*
Y139131D01*
X1520664Y141670D01*
X1515585D01*
X1513046Y139131D01*
Y136592D01*
X1515585Y134052D01*
X1523203D01*
X1528281Y126435D02*
Y128974D01*
X1530820D01*
Y126435D01*
X1528281D01*
X1540977D02*
X1546055D01*
X1543516D01*
Y141670D01*
X1540977Y139131D01*
X1553673D02*
X1556212Y141670D01*
X1561291D01*
X1563830Y139131D01*
Y136592D01*
X1561291Y134052D01*
X1558751D01*
X1561291D01*
X1563830Y131513D01*
Y128974D01*
X1561291Y126435D01*
X1556212D01*
X1553673Y128974D01*
X1568908Y126435D02*
Y136592D01*
X1571447D01*
X1573987Y134052D01*
Y126435D01*
Y134052D01*
X1576526Y136592D01*
X1579065Y134052D01*
Y126435D01*
X1584143D02*
X1589222D01*
X1586682D01*
Y136592D01*
X1584143D01*
X1596839Y126435D02*
X1601917D01*
X1599378D01*
Y141670D01*
X1596839D01*
X1609535Y126435D02*
X1614613Y131513D01*
Y136592D01*
X1609535Y141670D01*
X1203257Y88335D02*
X1208336D01*
X1205797D01*
Y103570D01*
X1203257Y101031D01*
X1226110Y88335D02*
X1215953D01*
X1226110Y98492D01*
Y101031D01*
X1223571Y103570D01*
X1218493D01*
X1215953Y101031D01*
X1231188Y90874D02*
X1233728Y88335D01*
X1238806D01*
X1241345Y90874D01*
Y101031D01*
X1238806Y103570D01*
X1233728D01*
X1231188Y101031D01*
Y98492D01*
X1233728Y95953D01*
X1241345D01*
X1261658Y103570D02*
X1271815D01*
X1266737D01*
Y88335D01*
X1279433D02*
X1284511D01*
X1287050Y90874D01*
Y95953D01*
X1284511Y98492D01*
X1279433D01*
X1276894Y95953D01*
Y90874D01*
X1279433Y88335D01*
X1294668Y101031D02*
Y98492D01*
X1292129D01*
X1297207D01*
X1294668D01*
Y90874D01*
X1297207Y88335D01*
X1307364Y98492D02*
X1312442D01*
X1314981Y95953D01*
Y88335D01*
X1307364D01*
X1304825Y90874D01*
X1307364Y93413D01*
X1314981D01*
X1320060Y88335D02*
X1325138D01*
X1322599D01*
Y103570D01*
X1320060D01*
X1213414Y446470D02*
X1203257D01*
Y438853D01*
X1208336Y441392D01*
X1210875D01*
X1213414Y438853D01*
Y433774D01*
X1210875Y431235D01*
X1205797D01*
X1203257Y433774D01*
X1218493Y443931D02*
X1221032Y446470D01*
X1226110D01*
X1228649Y443931D01*
Y433774D01*
X1226110Y431235D01*
X1221032D01*
X1218493Y433774D01*
Y443931D01*
X1210875Y393135D02*
Y408370D01*
X1203257Y400752D01*
X1213414D01*
X1203257Y355035D02*
X1208336D01*
X1205797D01*
Y370270D01*
X1203257Y367731D01*
X1215953D02*
X1218493Y370270D01*
X1223571D01*
X1226110Y367731D01*
Y357574D01*
X1223571Y355035D01*
X1218493D01*
X1215953Y357574D01*
Y367731D01*
X1213414Y316935D02*
X1203257D01*
X1213414Y327092D01*
Y329631D01*
X1210875Y332170D01*
X1205797D01*
X1203257Y329631D01*
X1218493D02*
X1221032Y332170D01*
X1226110D01*
X1228649Y329631D01*
Y319474D01*
X1226110Y316935D01*
X1221032D01*
X1218493Y319474D01*
Y329631D01*
X1203257Y278835D02*
X1208336D01*
X1205797D01*
Y294070D01*
X1203257Y291531D01*
X1215953Y281374D02*
X1218493Y278835D01*
X1223571D01*
X1226110Y281374D01*
Y291531D01*
X1223571Y294070D01*
X1218493D01*
X1215953Y291531D01*
Y288992D01*
X1218493Y286453D01*
X1226110D01*
X1213414Y240735D02*
X1203257D01*
X1213414Y250892D01*
Y253431D01*
X1210875Y255970D01*
X1205797D01*
X1203257Y253431D01*
X1213414Y202635D02*
X1203257D01*
X1213414Y212792D01*
Y215331D01*
X1210875Y217870D01*
X1205797D01*
X1203257Y215331D01*
X1210875Y164535D02*
Y179770D01*
X1203257Y172153D01*
X1213414D01*
X1203257Y126435D02*
X1208336D01*
X1205797D01*
Y141670D01*
X1203257Y139131D01*
X1215953D02*
X1218493Y141670D01*
X1223571D01*
X1226110Y139131D01*
Y136592D01*
X1223571Y134052D01*
X1226110Y131513D01*
Y128974D01*
X1223571Y126435D01*
X1218493D01*
X1215953Y128974D01*
Y131513D01*
X1218493Y134052D01*
X1215953Y136592D01*
Y139131D01*
X1218493Y134052D02*
X1223571D01*
X1067020Y793889D02*
Y743900D01*
Y793889D02*
X1088444D01*
X1095585Y791509D01*
X1097966Y789128D01*
X1100346Y784368D01*
Y779607D01*
X1097966Y774846D01*
X1095585Y772465D01*
X1088444Y770085D01*
X1067020D02*
X1088444D01*
X1095585Y767704D01*
X1097966Y765324D01*
X1100346Y760563D01*
Y753422D01*
X1097966Y748661D01*
X1095585Y746280D01*
X1088444Y743900D01*
X1067020D01*
X1125817Y793889D02*
X1121056Y791509D01*
X1116295Y786748D01*
X1113915Y781987D01*
X1111534Y774846D01*
Y762944D01*
X1113915Y755802D01*
X1116295Y751041D01*
X1121056Y746280D01*
X1125817Y743900D01*
X1135339D01*
X1140099Y746280D01*
X1144860Y751041D01*
X1147241Y755802D01*
X1149621Y762944D01*
Y774846D01*
X1147241Y781987D01*
X1144860Y786748D01*
X1140099Y791509D01*
X1135339Y793889D01*
X1125817D01*
X1199373Y743900D02*
X1180329Y793889D01*
X1161285Y743900D01*
X1168427Y760563D02*
X1192231D01*
X1211037Y793889D02*
Y743900D01*
Y793889D02*
X1232461D01*
X1239602Y791509D01*
X1241982Y789128D01*
X1244363Y784368D01*
Y779607D01*
X1241982Y774846D01*
X1239602Y772465D01*
X1232461Y770085D01*
X1211037D01*
X1227700D02*
X1244363Y743900D01*
X1255551Y793889D02*
Y743900D01*
Y793889D02*
X1272214D01*
X1279355Y791509D01*
X1284116Y786748D01*
X1286497Y781987D01*
X1288877Y774846D01*
Y762944D01*
X1286497Y755802D01*
X1284116Y751041D01*
X1279355Y746280D01*
X1272214Y743900D01*
X1255551D01*
X1339342Y793889D02*
Y743900D01*
Y793889D02*
X1356006D01*
X1363147Y791509D01*
X1367908Y786748D01*
X1370288Y781987D01*
X1372669Y774846D01*
Y762944D01*
X1370288Y755802D01*
X1367908Y751041D01*
X1363147Y746280D01*
X1356006Y743900D01*
X1339342D01*
X1421944D02*
X1402900Y793889D01*
X1383857Y743900D01*
X1390998Y760563D02*
X1414803D01*
X1450271Y793889D02*
Y743900D01*
X1433608Y793889D02*
X1466934D01*
X1510972Y743900D02*
X1491929Y793889D01*
X1472885Y743900D01*
X1480027Y760563D02*
X1503831D01*
X1067020Y682454D02*
Y652460D01*
Y682454D02*
X1079874D01*
X1084159Y681025D01*
X1085587Y679597D01*
X1087016Y676740D01*
Y673884D01*
X1085587Y671028D01*
X1084159Y669599D01*
X1079874Y668171D01*
X1067020D02*
X1079874D01*
X1084159Y666743D01*
X1085587Y665314D01*
X1087016Y662458D01*
Y658173D01*
X1085587Y655316D01*
X1084159Y653888D01*
X1079874Y652460D01*
X1067020D01*
X1102298Y682454D02*
X1099442Y681025D01*
X1096585Y678169D01*
X1095157Y675312D01*
X1093728Y671028D01*
Y663886D01*
X1095157Y659601D01*
X1096585Y656745D01*
X1099442Y653888D01*
X1102298Y652460D01*
X1108011D01*
X1110868Y653888D01*
X1113724Y656745D01*
X1115153Y659601D01*
X1116581Y663886D01*
Y671028D01*
X1115153Y675312D01*
X1113724Y678169D01*
X1110868Y681025D01*
X1108011Y682454D01*
X1102298D01*
X1146432Y652460D02*
X1135005Y682454D01*
X1123579Y652460D01*
X1127864Y662458D02*
X1142147D01*
X1153430Y682454D02*
Y652460D01*
Y682454D02*
X1166284D01*
X1170569Y681025D01*
X1171998Y679597D01*
X1173426Y676740D01*
Y673884D01*
X1171998Y671028D01*
X1170569Y669599D01*
X1166284Y668171D01*
X1153430D01*
X1163428D02*
X1173426Y652460D01*
X1180139Y682454D02*
Y652460D01*
Y682454D02*
X1190136D01*
X1194421Y681025D01*
X1197278Y678169D01*
X1198706Y675312D01*
X1200134Y671028D01*
Y663886D01*
X1198706Y659601D01*
X1197278Y656745D01*
X1194421Y653888D01*
X1190136Y652460D01*
X1180139D01*
X1230414Y682454D02*
Y652460D01*
Y682454D02*
X1240411D01*
X1244696Y681025D01*
X1247553Y678169D01*
X1248981Y675312D01*
X1250409Y671028D01*
Y663886D01*
X1248981Y659601D01*
X1247553Y656745D01*
X1244696Y653888D01*
X1240411Y652460D01*
X1230414D01*
X1257122Y682454D02*
Y652460D01*
X1263406Y682454D02*
Y652460D01*
Y682454D02*
X1274833Y652460D01*
X1286259Y682454D02*
X1274833Y652460D01*
X1286259Y682454D02*
Y652460D01*
X1313396Y682454D02*
X1294828D01*
Y652460D01*
X1313396D01*
X1294828Y668171D02*
X1306254D01*
X1318395Y682454D02*
Y652460D01*
Y682454D02*
X1338390Y652460D01*
Y682454D02*
Y652460D01*
X1366670Y678169D02*
X1363813Y681025D01*
X1359529Y682454D01*
X1353816D01*
X1349531Y681025D01*
X1346674Y678169D01*
Y675312D01*
X1348103Y672456D01*
X1349531Y671028D01*
X1352387Y669599D01*
X1360957Y666743D01*
X1363813Y665314D01*
X1365242Y663886D01*
X1366670Y661030D01*
Y656745D01*
X1363813Y653888D01*
X1359529Y652460D01*
X1353816D01*
X1349531Y653888D01*
X1346674Y656745D01*
X1373383Y682454D02*
Y652460D01*
X1388237Y682454D02*
X1385380Y681025D01*
X1382524Y678169D01*
X1381095Y675312D01*
X1379667Y671028D01*
Y663886D01*
X1381095Y659601D01*
X1382524Y656745D01*
X1385380Y653888D01*
X1388237Y652460D01*
X1393950D01*
X1396806Y653888D01*
X1399663Y656745D01*
X1401091Y659601D01*
X1402519Y663886D01*
Y671028D01*
X1401091Y675312D01*
X1399663Y678169D01*
X1396806Y681025D01*
X1393950Y682454D01*
X1388237D01*
X1409518D02*
Y652460D01*
Y682454D02*
X1429514Y652460D01*
Y682454D02*
Y652460D01*
X1462792Y672456D02*
X1461364Y671028D01*
X1462792Y669599D01*
X1464220Y671028D01*
X1462792Y672456D01*
Y655316D02*
X1461364Y653888D01*
X1462792Y652460D01*
X1464220Y653888D01*
X1462792Y655316D01*
X1512924Y672456D02*
X1511496Y668171D01*
X1508640Y665314D01*
X1504355Y663886D01*
X1502926D01*
X1498642Y665314D01*
X1495785Y668171D01*
X1494357Y672456D01*
Y673884D01*
X1495785Y678169D01*
X1498642Y681025D01*
X1502926Y682454D01*
X1504355D01*
X1508640Y681025D01*
X1511496Y678169D01*
X1512924Y672456D01*
Y665314D01*
X1511496Y658173D01*
X1508640Y653888D01*
X1504355Y652460D01*
X1501498D01*
X1497213Y653888D01*
X1495785Y656745D01*
X1538205Y682454D02*
X1523922D01*
X1522494Y669599D01*
X1523922Y671028D01*
X1528207Y672456D01*
X1532492D01*
X1536776Y671028D01*
X1539633Y668171D01*
X1541061Y663886D01*
Y661030D01*
X1539633Y656745D01*
X1536776Y653888D01*
X1532492Y652460D01*
X1528207D01*
X1523922Y653888D01*
X1522494Y655316D01*
X1521066Y658173D01*
X1547774Y672456D02*
Y652460D01*
Y666743D02*
X1552059Y671028D01*
X1554915Y672456D01*
X1559200D01*
X1562057Y671028D01*
X1563485Y666743D01*
Y652460D01*
Y666743D02*
X1567770Y671028D01*
X1570626Y672456D01*
X1574911D01*
X1577768Y671028D01*
X1579196Y666743D01*
Y652460D01*
X1588622Y672456D02*
Y652460D01*
Y666743D02*
X1592907Y671028D01*
X1595764Y672456D01*
X1600049D01*
X1602905Y671028D01*
X1604333Y666743D01*
Y652460D01*
Y666743D02*
X1608618Y671028D01*
X1611475Y672456D01*
X1615759D01*
X1618616Y671028D01*
X1620044Y666743D01*
Y652460D01*
X1653037Y682454D02*
X1673033Y652460D01*
Y682454D02*
X1653037Y652460D01*
X1710453Y682454D02*
X1706169Y681025D01*
X1704740Y678169D01*
Y675312D01*
X1706169Y672456D01*
X1709025Y671028D01*
X1714738Y669599D01*
X1719023Y668171D01*
X1721879Y665314D01*
X1723308Y662458D01*
Y658173D01*
X1721879Y655316D01*
X1720451Y653888D01*
X1716167Y652460D01*
X1710453D01*
X1706169Y653888D01*
X1704740Y655316D01*
X1703312Y658173D01*
Y662458D01*
X1704740Y665314D01*
X1707597Y668171D01*
X1711882Y669599D01*
X1717595Y671028D01*
X1720451Y672456D01*
X1721879Y675312D01*
Y678169D01*
X1720451Y681025D01*
X1716167Y682454D01*
X1710453D01*
X1747160D02*
X1732877D01*
X1731449Y669599D01*
X1732877Y671028D01*
X1737162Y672456D01*
X1741447D01*
X1745732Y671028D01*
X1748588Y668171D01*
X1750016Y663886D01*
Y661030D01*
X1748588Y656745D01*
X1745732Y653888D01*
X1741447Y652460D01*
X1737162D01*
X1732877Y653888D01*
X1731449Y655316D01*
X1730021Y658173D01*
X1756729Y672456D02*
Y652460D01*
Y666743D02*
X1761014Y671028D01*
X1763871Y672456D01*
X1768155D01*
X1771012Y671028D01*
X1772440Y666743D01*
Y652460D01*
Y666743D02*
X1776725Y671028D01*
X1779581Y672456D01*
X1783866D01*
X1786723Y671028D01*
X1788151Y666743D01*
Y652460D01*
X1797578Y672456D02*
Y652460D01*
Y666743D02*
X1801862Y671028D01*
X1804719Y672456D01*
X1809004D01*
X1811860Y671028D01*
X1813289Y666743D01*
Y652460D01*
Y666743D02*
X1817573Y671028D01*
X1820430Y672456D01*
X1824715D01*
X1827571Y671028D01*
X1828999Y666743D01*
Y652460D01*
X1067020Y626574D02*
Y596580D01*
Y626574D02*
X1079874D01*
X1084159Y625145D01*
X1085587Y623717D01*
X1087016Y620860D01*
Y618004D01*
X1085587Y615148D01*
X1084159Y613719D01*
X1079874Y612291D01*
X1067020D02*
X1079874D01*
X1084159Y610863D01*
X1085587Y609434D01*
X1087016Y606578D01*
Y602293D01*
X1085587Y599436D01*
X1084159Y598008D01*
X1079874Y596580D01*
X1067020D01*
X1102298Y626574D02*
X1099442Y625145D01*
X1096585Y622289D01*
X1095157Y619432D01*
X1093728Y615148D01*
Y608006D01*
X1095157Y603721D01*
X1096585Y600865D01*
X1099442Y598008D01*
X1102298Y596580D01*
X1108011D01*
X1110868Y598008D01*
X1113724Y600865D01*
X1115153Y603721D01*
X1116581Y608006D01*
Y615148D01*
X1115153Y619432D01*
X1113724Y622289D01*
X1110868Y625145D01*
X1108011Y626574D01*
X1102298D01*
X1146432Y596580D02*
X1135005Y626574D01*
X1123579Y596580D01*
X1127864Y606578D02*
X1142147D01*
X1153430Y626574D02*
Y596580D01*
Y626574D02*
X1166284D01*
X1170569Y625145D01*
X1171998Y623717D01*
X1173426Y620860D01*
Y618004D01*
X1171998Y615148D01*
X1170569Y613719D01*
X1166284Y612291D01*
X1153430D01*
X1163428D02*
X1173426Y596580D01*
X1180139Y626574D02*
Y596580D01*
Y626574D02*
X1190136D01*
X1194421Y625145D01*
X1197278Y622289D01*
X1198706Y619432D01*
X1200134Y615148D01*
Y608006D01*
X1198706Y603721D01*
X1197278Y600865D01*
X1194421Y598008D01*
X1190136Y596580D01*
X1180139D01*
X1240411Y626574D02*
Y596580D01*
X1230414Y626574D02*
X1250409D01*
X1253980D02*
Y596580D01*
X1273976Y626574D02*
Y596580D01*
X1253980Y612291D02*
X1273976D01*
X1282260Y626574D02*
Y596580D01*
X1309968Y619432D02*
X1308540Y622289D01*
X1305683Y625145D01*
X1302827Y626574D01*
X1297113D01*
X1294257Y625145D01*
X1291400Y622289D01*
X1289972Y619432D01*
X1288544Y615148D01*
Y608006D01*
X1289972Y603721D01*
X1291400Y600865D01*
X1294257Y598008D01*
X1297113Y596580D01*
X1302827D01*
X1305683Y598008D01*
X1308540Y600865D01*
X1309968Y603721D01*
X1318395Y626574D02*
Y596580D01*
X1338390Y626574D02*
X1318395Y606578D01*
X1325536Y613719D02*
X1338390Y596580D01*
X1345103Y626574D02*
Y596580D01*
Y626574D02*
X1365099Y596580D01*
Y626574D02*
Y596580D01*
X1391950Y626574D02*
X1373383D01*
Y596580D01*
X1391950D01*
X1373383Y612291D02*
X1384809D01*
X1416945Y622289D02*
X1414088Y625145D01*
X1409804Y626574D01*
X1404091D01*
X1399806Y625145D01*
X1396949Y622289D01*
Y619432D01*
X1398378Y616576D01*
X1399806Y615148D01*
X1402662Y613719D01*
X1411232Y610863D01*
X1414088Y609434D01*
X1415517Y608006D01*
X1416945Y605150D01*
Y600865D01*
X1414088Y598008D01*
X1409804Y596580D01*
X1404091D01*
X1399806Y598008D01*
X1396949Y600865D01*
X1443654Y622289D02*
X1440797Y625145D01*
X1436512Y626574D01*
X1430799D01*
X1426514Y625145D01*
X1423658Y622289D01*
Y619432D01*
X1425086Y616576D01*
X1426514Y615148D01*
X1429371Y613719D01*
X1437940Y610863D01*
X1440797Y609434D01*
X1442225Y608006D01*
X1443654Y605150D01*
Y600865D01*
X1440797Y598008D01*
X1436512Y596580D01*
X1430799D01*
X1426514Y598008D01*
X1423658Y600865D01*
X1475361Y616576D02*
X1473933Y615148D01*
X1475361Y613719D01*
X1476789Y615148D01*
X1475361Y616576D01*
Y599436D02*
X1473933Y598008D01*
X1475361Y596580D01*
X1476789Y598008D01*
X1475361Y599436D01*
X1506926Y620860D02*
X1509782Y622289D01*
X1514067Y626574D01*
Y596580D01*
X1530349Y599436D02*
X1528921Y598008D01*
X1530349Y596580D01*
X1531777Y598008D01*
X1530349Y599436D01*
X1555487Y622289D02*
X1554058Y625145D01*
X1549774Y626574D01*
X1546917D01*
X1542632Y625145D01*
X1539776Y620860D01*
X1538347Y613719D01*
Y606578D01*
X1539776Y600865D01*
X1542632Y598008D01*
X1546917Y596580D01*
X1548345D01*
X1552630Y598008D01*
X1555487Y600865D01*
X1556915Y605150D01*
Y606578D01*
X1555487Y610863D01*
X1552630Y613719D01*
X1548345Y615148D01*
X1546917D01*
X1542632Y613719D01*
X1539776Y610863D01*
X1538347Y606578D01*
X1563485Y616576D02*
Y596580D01*
Y610863D02*
X1567770Y615148D01*
X1570626Y616576D01*
X1574911D01*
X1577768Y615148D01*
X1579196Y610863D01*
Y596580D01*
Y610863D02*
X1583481Y615148D01*
X1586337Y616576D01*
X1590622D01*
X1593479Y615148D01*
X1594907Y610863D01*
Y596580D01*
X1604333Y616576D02*
Y596580D01*
Y610863D02*
X1608618Y615148D01*
X1611475Y616576D01*
X1615759D01*
X1618616Y615148D01*
X1620044Y610863D01*
Y596580D01*
Y610863D02*
X1624329Y615148D01*
X1627186Y616576D01*
X1631470D01*
X1634327Y615148D01*
X1635755Y610863D01*
Y596580D01*
X1067020Y575774D02*
Y545780D01*
Y575774D02*
X1087016Y545780D01*
Y575774D02*
Y545780D01*
X1103869Y575774D02*
X1101013Y574345D01*
X1098156Y571489D01*
X1096728Y568632D01*
X1095300Y564347D01*
Y557206D01*
X1096728Y552921D01*
X1098156Y550065D01*
X1101013Y547208D01*
X1103869Y545780D01*
X1109582D01*
X1112439Y547208D01*
X1115295Y550065D01*
X1116724Y552921D01*
X1118152Y557206D01*
Y564347D01*
X1116724Y568632D01*
X1115295Y571489D01*
X1112439Y574345D01*
X1109582Y575774D01*
X1103869D01*
X1126579Y548637D02*
X1125150Y547208D01*
X1126579Y545780D01*
X1128007Y547208D01*
X1126579Y548637D01*
X1166713Y575774D02*
X1163856Y574345D01*
X1161000Y571489D01*
X1159572Y568632D01*
X1158143Y564347D01*
Y557206D01*
X1159572Y552921D01*
X1161000Y550065D01*
X1163856Y547208D01*
X1166713Y545780D01*
X1172426D01*
X1175283Y547208D01*
X1178139Y550065D01*
X1179567Y552921D01*
X1180995Y557206D01*
Y564347D01*
X1179567Y568632D01*
X1178139Y571489D01*
X1175283Y574345D01*
X1172426Y575774D01*
X1166713D01*
X1187994D02*
Y545780D01*
Y575774D02*
X1206562D01*
X1187994Y561491D02*
X1199420D01*
X1233556Y575774D02*
Y545780D01*
X1250695D01*
X1276832D02*
X1265406Y575774D01*
X1253980Y545780D01*
X1258265Y555778D02*
X1272547D01*
X1283831Y575774D02*
X1295257Y561491D01*
Y545780D01*
X1306683Y575774D02*
X1295257Y561491D01*
X1329107Y575774D02*
X1310539D01*
Y545780D01*
X1329107D01*
X1310539Y561491D02*
X1321965D01*
X1334106Y575774D02*
Y545780D01*
Y575774D02*
X1346960D01*
X1351245Y574345D01*
X1352673Y572917D01*
X1354101Y570061D01*
Y567204D01*
X1352673Y564347D01*
X1351245Y562919D01*
X1346960Y561491D01*
X1334106D01*
X1344103D02*
X1354101Y545780D01*
X1380810Y571489D02*
X1377953Y574345D01*
X1373669Y575774D01*
X1367955D01*
X1363671Y574345D01*
X1360814Y571489D01*
Y568632D01*
X1362242Y565776D01*
X1363671Y564347D01*
X1366527Y562919D01*
X1375097Y560063D01*
X1377953Y558634D01*
X1379382Y557206D01*
X1380810Y554350D01*
Y550065D01*
X1377953Y547208D01*
X1373669Y545780D01*
X1367955D01*
X1363671Y547208D01*
X1360814Y550065D01*
X1412517Y565776D02*
X1411089Y564347D01*
X1412517Y562919D01*
X1413946Y564347D01*
X1412517Y565776D01*
Y548637D02*
X1411089Y547208D01*
X1412517Y545780D01*
X1413946Y547208D01*
X1412517Y548637D01*
X1452652Y575774D02*
X1448367Y574345D01*
X1445510Y570061D01*
X1444082Y562919D01*
Y558634D01*
X1445510Y551493D01*
X1448367Y547208D01*
X1452652Y545780D01*
X1455508D01*
X1459793Y547208D01*
X1462649Y551493D01*
X1464078Y558634D01*
Y562919D01*
X1462649Y570061D01*
X1459793Y574345D01*
X1455508Y575774D01*
X1452652D01*
X1472219Y568632D02*
Y570061D01*
X1473647Y572917D01*
X1475075Y574345D01*
X1477932Y575774D01*
X1483645D01*
X1486501Y574345D01*
X1487930Y572917D01*
X1489358Y570061D01*
Y567204D01*
X1487930Y564347D01*
X1485073Y560063D01*
X1470791Y545780D01*
X1490786D01*
D36*
X1051905Y457905D02*
X1920867D01*
X1051905Y115005D02*
X1920867D01*
X1051905Y76905D02*
X1920867D01*
Y496005D01*
X1051905D02*
X1920867D01*
X1051905Y76905D02*
Y496005D01*
X1759616Y76905D02*
Y496005D01*
X1631123Y76905D02*
Y496005D01*
X1341648Y76905D02*
Y496005D01*
X1191827Y76905D02*
Y496005D01*
D55*
X1771046Y487617D02*
Y475429D01*
X1777140Y469335D01*
X1783234Y475429D01*
Y487617D01*
X1789328Y469335D02*
X1795422D01*
X1792375D01*
Y481523D01*
X1789328D01*
X1807610D02*
X1813704D01*
X1816751Y478476D01*
Y469335D01*
X1807610D01*
X1804563Y472382D01*
X1807610Y475429D01*
X1816751D01*
X1822845Y469335D02*
X1835033Y481523D01*
X1841127Y469335D02*
Y487617D01*
X1850268D01*
X1853315Y484570D01*
Y478476D01*
X1850268Y475429D01*
X1841127D01*
X1862456Y481523D02*
X1868550D01*
X1871597Y478476D01*
Y469335D01*
X1862456D01*
X1859409Y472382D01*
X1862456Y475429D01*
X1871597D01*
X1889879Y487617D02*
Y469335D01*
X1880738D01*
X1877691Y472382D01*
Y478476D01*
X1880738Y481523D01*
X1889879D01*
X1642553Y469335D02*
Y487617D01*
X1651694D01*
X1654741Y484570D01*
Y478476D01*
X1651694Y475429D01*
X1642553D01*
X1660835Y469335D02*
X1666929D01*
X1663882D01*
Y487617D01*
X1660835D01*
X1679117Y481523D02*
X1685211D01*
X1688259Y478476D01*
Y469335D01*
X1679117D01*
X1676071Y472382D01*
X1679117Y475429D01*
X1688259D01*
X1697400Y484570D02*
Y481523D01*
X1694353D01*
X1700447D01*
X1697400D01*
Y472382D01*
X1700447Y469335D01*
X1718729D02*
X1712635D01*
X1709588Y472382D01*
Y478476D01*
X1712635Y481523D01*
X1718729D01*
X1721776Y478476D01*
Y475429D01*
X1709588D01*
X1740058Y487617D02*
Y469335D01*
X1730917D01*
X1727870Y472382D01*
Y478476D01*
X1730917Y481523D01*
X1740058D01*
X1353078Y487617D02*
Y469335D01*
Y478476D01*
X1365266D01*
Y487617D01*
Y469335D01*
X1374407D02*
X1380501D01*
X1383548Y472382D01*
Y478476D01*
X1380501Y481523D01*
X1374407D01*
X1371360Y478476D01*
Y472382D01*
X1374407Y469335D01*
X1389642D02*
X1395736D01*
X1392689D01*
Y487617D01*
X1389642D01*
X1414018Y469335D02*
X1407924D01*
X1404877Y472382D01*
Y478476D01*
X1407924Y481523D01*
X1414018D01*
X1417065Y478476D01*
Y475429D01*
X1404877D01*
X1453629Y484570D02*
X1450582Y487617D01*
X1444488D01*
X1441441Y484570D01*
Y481523D01*
X1444488Y478476D01*
X1450582D01*
X1453629Y475429D01*
Y472382D01*
X1450582Y469335D01*
X1444488D01*
X1441441Y472382D01*
X1459724Y469335D02*
X1465818D01*
X1462771D01*
Y481523D01*
X1459724D01*
X1474958D02*
X1487147D01*
X1474958Y469335D01*
X1487147D01*
X1502382D02*
X1496288D01*
X1493241Y472382D01*
Y478476D01*
X1496288Y481523D01*
X1502382D01*
X1505429Y478476D01*
Y475429D01*
X1493241D01*
X1215445Y484570D02*
X1212399Y487617D01*
X1206304D01*
X1203257Y484570D01*
Y472382D01*
X1206304Y469335D01*
X1212399D01*
X1215445Y472382D01*
X1224586Y469335D02*
X1230681D01*
X1233728Y472382D01*
Y478476D01*
X1230681Y481523D01*
X1224586D01*
X1221540Y478476D01*
Y472382D01*
X1224586Y469335D01*
X1239822Y481523D02*
Y472382D01*
X1242869Y469335D01*
X1252010D01*
Y481523D01*
X1258104Y469335D02*
Y481523D01*
X1267245D01*
X1270292Y478476D01*
Y469335D01*
X1279433Y484570D02*
Y481523D01*
X1276386D01*
X1282480D01*
X1279433D01*
Y472382D01*
X1282480Y469335D01*
X1086953Y484570D02*
X1083906Y487617D01*
X1077812D01*
X1074765Y484570D01*
Y481523D01*
X1077812Y478476D01*
X1083906D01*
X1086953Y475429D01*
Y472382D01*
X1083906Y469335D01*
X1077812D01*
X1074765Y472382D01*
X1093047Y481523D02*
Y472382D01*
X1096094Y469335D01*
X1105235D01*
Y466288D01*
X1102188Y463241D01*
X1099141D01*
X1105235Y469335D02*
Y481523D01*
X1111329Y469335D02*
Y481523D01*
X1114376D01*
X1117423Y478476D01*
Y469335D01*
Y478476D01*
X1120470Y481523D01*
X1123517Y478476D01*
Y469335D01*
X1129611Y487617D02*
Y469335D01*
X1138752D01*
X1141799Y472382D01*
Y475429D01*
Y478476D01*
X1138752Y481523D01*
X1129611D01*
X1150940Y469335D02*
X1157034D01*
X1160081Y472382D01*
Y478476D01*
X1157034Y481523D01*
X1150940D01*
X1147893Y478476D01*
Y472382D01*
X1150940Y469335D01*
X1166175D02*
X1172269D01*
X1169222D01*
Y487617D01*
X1166175D01*
M02*
