G04*
G04 #@! TF.GenerationSoftware,Altium Limited,Altium Designer,26.2.0 (7)*
G04*
G04 Layer_Color=65535*
%FSLAX44Y44*%
%MOMM*%
G71*
G04*
G04 #@! TF.SameCoordinates,E85B846E-6058-4BB5-BA70-B6274EE6EEFF*
G04*
G04*
G04 #@! TF.FilePolarity,Positive*
G04*
G01*
G75*
%ADD10C,0.2500*%
%ADD11C,0.2000*%
%ADD12C,0.1270*%
%ADD13C,0.2540*%
%ADD14C,0.1500*%
D10*
X326500Y59500D02*
G03*
X326500Y59500I-1250J0D01*
G01*
X446500D02*
G03*
X446500Y59500I-1250J0D01*
G01*
X178000Y84000D02*
G03*
X178000Y84000I-1250J0D01*
G01*
X444500Y212000D02*
G03*
X444500Y212000I-1250J0D01*
G01*
X324500Y212250D02*
G03*
X324500Y212250I-1250J0D01*
G01*
Y142250D02*
G03*
X324500Y142250I-1250J0D01*
G01*
X320750Y292250D02*
G03*
X320750Y292250I-1250J0D01*
G01*
X78230Y398980D02*
G03*
X78230Y398980I-1250J0D01*
G01*
X596500Y57000D02*
G03*
X596500Y57000I-1250J0D01*
G01*
X716500Y56750D02*
G03*
X716500Y56750I-1250J0D01*
G01*
X594500Y139750D02*
G03*
X594500Y139750I-1250J0D01*
G01*
Y212250D02*
G03*
X594500Y212250I-1250J0D01*
G01*
X714500D02*
G03*
X714500Y212250I-1250J0D01*
G01*
X590750Y292250D02*
G03*
X590750Y292250I-1250J0D01*
G01*
D11*
X252000Y201000D02*
G03*
X252000Y201000I-31500J0D01*
G01*
X817224Y421450D02*
G03*
X817330Y391130I11506J-15120D01*
G01*
X840130D02*
G03*
X840235Y421450I-11400J15200D01*
G01*
X252000Y305000D02*
G03*
X252000Y305000I-31500J0D01*
G01*
X330000Y36000D02*
X429000D01*
X330000D02*
Y93500D01*
X429000D01*
Y36000D02*
Y93500D01*
X438500Y348000D02*
Y353260D01*
Y348000D02*
X501500D01*
X438500Y372000D02*
X501500D01*
X438500Y366740D02*
Y372000D01*
X501500Y348000D02*
Y353260D01*
Y366740D02*
Y372000D01*
X220500Y493500D02*
Y520500D01*
X177990Y493500D02*
Y520500D01*
X168500D02*
X220500D01*
X168500Y493500D02*
X220500D01*
X168500D02*
Y520500D01*
X707500Y419740D02*
Y425000D01*
Y401000D02*
Y406260D01*
X644500Y419740D02*
Y425000D01*
X707500D01*
X644500Y401000D02*
X707500D01*
X644500D02*
Y406260D01*
X549000Y36000D02*
Y93500D01*
X450000Y36000D02*
X549000D01*
X450000Y93500D02*
X549000D01*
X450000Y36000D02*
Y93500D01*
X183500Y50000D02*
X257500D01*
X183500D02*
Y107500D01*
X257500D01*
Y50000D02*
Y107500D01*
X450000Y178000D02*
X524000D01*
X450000D02*
Y235500D01*
X524000D01*
Y178000D02*
Y235500D01*
X330000Y178250D02*
X404000D01*
X330000D02*
Y235750D01*
X404000D01*
Y178250D02*
Y235750D01*
X330000Y108250D02*
X404000D01*
X330000D02*
Y165750D01*
X404000D01*
Y108250D02*
Y165750D01*
X449000Y258250D02*
Y315750D01*
X325000D02*
X449000D01*
X325000Y258250D02*
X449000D01*
X325000D02*
Y315750D01*
X817330Y391130D02*
X817880Y391090D01*
X839580D02*
X840130Y391130D01*
X828730Y429230D02*
Y439230D01*
X823730Y434230D02*
X833730D01*
X448250Y413990D02*
Y419250D01*
Y395250D02*
Y400510D01*
X385250Y413990D02*
Y419250D01*
X448250D01*
X385250Y395250D02*
X448250D01*
X385250D02*
Y400510D01*
X238500Y416740D02*
Y422000D01*
Y398000D02*
Y403260D01*
X175500Y422000D02*
X238500D01*
X175500Y416740D02*
Y422000D01*
Y398000D02*
X238500D01*
X175500D02*
Y403260D01*
X56580Y392480D02*
X103580D01*
X56580Y290480D02*
X103580D01*
X56580D02*
Y392480D01*
X103580Y290480D02*
Y392480D01*
X98580Y290480D02*
Y392480D01*
X600000Y33500D02*
X699000D01*
X600000D02*
Y91000D01*
X699000D01*
Y33500D02*
Y91000D01*
X720000Y33250D02*
X819000D01*
X720000D02*
Y90750D01*
X819000D01*
Y33250D02*
Y90750D01*
X600000Y105750D02*
X674000D01*
X600000D02*
Y163250D01*
X674000D01*
Y105750D02*
Y163250D01*
X600000Y178250D02*
X674000D01*
X600000D02*
Y235750D01*
X674000Y178250D02*
Y235750D01*
X600000D02*
X674000D01*
X720000Y178250D02*
X794000D01*
X720000D02*
Y235750D01*
X794000D01*
Y178250D02*
Y235750D01*
X719000Y258250D02*
Y315750D01*
X595000D02*
X719000D01*
X595000Y258250D02*
X719000D01*
X595000D02*
Y315750D01*
X761000Y368740D02*
Y374000D01*
Y350000D02*
Y355260D01*
X698000Y368740D02*
Y374000D01*
X761000D01*
X698000Y350000D02*
X761000D01*
X698000D02*
Y355260D01*
D12*
X429500Y486500D02*
X556500D01*
X401500Y511000D02*
Y543000D01*
X564000Y527000D02*
X574000D01*
X569000Y522000D02*
Y532000D01*
X401500Y511000D02*
X429500Y486500D01*
X384000Y527000D02*
X394000D01*
X556500Y486500D02*
Y567500D01*
X429500D02*
X556500D01*
X401500Y543000D02*
X429500Y567500D01*
X329500Y643000D02*
X357500Y667500D01*
X484500D01*
Y586500D02*
Y667500D01*
X312000Y627000D02*
X322000D01*
X329500Y611000D02*
X357500Y586500D01*
X497000Y622000D02*
Y632000D01*
X492000Y627000D02*
X502000D01*
X329500Y611000D02*
Y643000D01*
X357500Y586500D02*
X484500D01*
X44480Y149280D02*
Y250880D01*
Y149280D02*
X116480D01*
X44480Y250880D02*
X116480D01*
Y149280D02*
Y250880D01*
X126480Y149280D02*
Y250880D01*
X116480Y149280D02*
X126480D01*
X116480Y250880D02*
X126480D01*
X119500Y667500D02*
X246500D01*
X274500Y611000D02*
Y643000D01*
X102000Y627000D02*
X112000D01*
X107000Y622000D02*
Y632000D01*
X246500Y667500D02*
X274500Y643000D01*
X282000Y627000D02*
X292000D01*
X119500Y586500D02*
Y667500D01*
Y586500D02*
X246500D01*
X274500Y611000D01*
X246500Y686500D02*
X274500Y711000D01*
X119500Y686500D02*
X246500D01*
X119500D02*
Y767500D01*
X282000Y727000D02*
X292000D01*
X246500Y767500D02*
X274500Y743000D01*
X107000Y722000D02*
Y732000D01*
X102000Y727000D02*
X112000D01*
X274500Y711000D02*
Y743000D01*
X119500Y767500D02*
X246500D01*
X662500Y543000D02*
X690500Y567500D01*
X817500D01*
Y486500D02*
Y567500D01*
X645000Y527000D02*
X655000D01*
X662500Y511000D02*
X690500Y486500D01*
X830000Y522000D02*
Y532000D01*
X825000Y527000D02*
X835000D01*
X662500Y511000D02*
Y543000D01*
X690500Y486500D02*
X817500D01*
X617500Y586500D02*
X744500D01*
X589500Y611000D02*
Y643000D01*
X752000Y627000D02*
X762000D01*
X757000Y622000D02*
Y632000D01*
X589500Y611000D02*
X617500Y586500D01*
X572000Y627000D02*
X582000D01*
X744500Y586500D02*
Y667500D01*
X617500D02*
X744500D01*
X589500Y643000D02*
X617500Y667500D01*
Y686500D02*
X744500D01*
X589500Y711000D02*
Y743000D01*
X752000Y727000D02*
X762000D01*
X757000Y722000D02*
Y732000D01*
X589500Y711000D02*
X617500Y686500D01*
X572000Y727000D02*
X582000D01*
X744500Y686500D02*
Y767500D01*
X617500D02*
X744500D01*
X589500Y743000D02*
X617500Y767500D01*
X329500Y743000D02*
X357500Y767500D01*
X484500D01*
Y686500D02*
Y767500D01*
X312000Y727000D02*
X322000D01*
X329500Y711000D02*
X357500Y686500D01*
X497000Y722000D02*
Y732000D01*
X492000Y727000D02*
X502000D01*
X329500Y711000D02*
Y743000D01*
X357500Y686500D02*
X484500D01*
X26500Y466000D02*
Y593000D01*
X51000Y621000D02*
X83000D01*
X67000Y448500D02*
Y458500D01*
X62000Y453500D02*
X72000D01*
X26500Y593000D02*
X51000Y621000D01*
X67000Y628500D02*
Y638500D01*
X26500Y466000D02*
X107500D01*
Y593000D01*
X83000Y621000D02*
X107500Y593000D01*
D13*
X351922Y510535D02*
X349383Y507995D01*
Y502917D01*
X351922Y500378D01*
X362078D01*
X364618Y502917D01*
Y507995D01*
X362078Y510535D01*
X349383Y515613D02*
Y520691D01*
Y518152D01*
X364618D01*
Y515613D01*
Y520691D01*
Y528309D02*
X349383D01*
X364618Y538465D01*
X349383D01*
X364618Y543544D02*
Y548622D01*
Y546083D01*
X349383D01*
X351922Y543544D01*
X310348Y584103D02*
X295112D01*
X300191Y589182D01*
X295112Y594260D01*
X310348D01*
X295112Y599338D02*
X310348D01*
Y606956D01*
X307808Y609495D01*
X297652D01*
X295112Y606956D01*
Y599338D01*
Y622191D02*
Y617113D01*
X297652Y614573D01*
X307808D01*
X310348Y617113D01*
Y622191D01*
X307808Y624730D01*
X297652D01*
X295112Y622191D01*
Y629808D02*
X307808D01*
X310348Y632348D01*
Y637426D01*
X307808Y639965D01*
X295112D01*
Y645043D02*
Y655200D01*
Y650122D01*
X310348D01*
Y660278D02*
Y665357D01*
Y662818D01*
X295112D01*
X297652Y660278D01*
X359226Y14382D02*
Y29618D01*
X364304Y24539D01*
X369383Y29618D01*
Y14382D01*
X384618Y27078D02*
X382078Y29618D01*
X377000D01*
X374461Y27078D01*
Y16922D01*
X377000Y14382D01*
X382078D01*
X384618Y16922D01*
X389696Y14382D02*
X394774D01*
X392235D01*
Y29618D01*
X389696Y27078D01*
X475284Y379113D02*
Y394347D01*
X482902D01*
X485441Y391808D01*
Y386730D01*
X482902Y384191D01*
X475284D01*
X480363D02*
X485441Y379113D01*
X500676D02*
X490519D01*
X500676Y389269D01*
Y391808D01*
X498137Y394347D01*
X493058D01*
X490519Y391808D01*
X177323Y548848D02*
Y533613D01*
X184941D01*
X187480Y536152D01*
Y546308D01*
X184941Y548848D01*
X177323D01*
X192558Y533613D02*
X197637D01*
X195098D01*
Y548848D01*
X192558Y546308D01*
X30058Y213715D02*
X32598Y216254D01*
Y221333D01*
X30058Y223872D01*
X19902D01*
X17363Y221333D01*
Y216254D01*
X19902Y213715D01*
X24980D01*
Y218793D01*
X17363Y208637D02*
X32598D01*
X17363Y198480D01*
X32598D01*
Y193402D02*
X17363D01*
Y185784D01*
X19902Y183245D01*
X30058D01*
X32598Y185784D01*
Y193402D01*
X17363Y178167D02*
Y173088D01*
Y175627D01*
X32598D01*
X30058Y178167D01*
X653284Y433112D02*
Y448348D01*
X660902D01*
X663441Y445808D01*
Y440730D01*
X660902Y438191D01*
X653284D01*
X658363D02*
X663441Y433112D01*
X678676Y448348D02*
X668519D01*
Y440730D01*
X673598Y443269D01*
X676137D01*
X678676Y440730D01*
Y435652D01*
X676137Y433112D01*
X671058D01*
X668519Y435652D01*
X509362Y26058D02*
X506823Y28598D01*
X501745D01*
X499206Y26058D01*
Y15902D01*
X501745Y13362D01*
X506823D01*
X509362Y15902D01*
X524598Y26058D02*
X522058Y28598D01*
X516980D01*
X514441Y26058D01*
Y23519D01*
X516980Y20980D01*
X522058D01*
X524598Y18441D01*
Y15902D01*
X522058Y13362D01*
X516980D01*
X514441Y15902D01*
X529676Y13362D02*
X534754D01*
X532215D01*
Y28598D01*
X529676Y26058D01*
X104117Y643971D02*
X88883D01*
X93961Y649049D01*
X88883Y654128D01*
X104117D01*
X88883Y659206D02*
X104117D01*
Y666824D01*
X101578Y669363D01*
X91422D01*
X88883Y666824D01*
Y659206D01*
Y674441D02*
Y679520D01*
Y676980D01*
X104117D01*
Y674441D01*
Y679520D01*
Y687137D02*
X88883D01*
X104117Y697294D01*
X88883D01*
X104117Y712529D02*
Y702372D01*
X93961Y712529D01*
X91422D01*
X88883Y709990D01*
Y704911D01*
X91422Y702372D01*
X211961Y39618D02*
X201804D01*
Y32000D01*
X206882Y34539D01*
X209422D01*
X211961Y32000D01*
Y26922D01*
X209422Y24383D01*
X204343D01*
X201804Y26922D01*
X217039Y39618D02*
Y29461D01*
X222118Y24383D01*
X227196Y29461D01*
Y39618D01*
X206191Y256808D02*
X203652Y259348D01*
X198573D01*
X196034Y256808D01*
Y246652D01*
X198573Y244112D01*
X203652D01*
X206191Y246652D01*
X221426Y244112D02*
X211269D01*
X221426Y254269D01*
Y256808D01*
X218887Y259348D01*
X213808D01*
X211269Y256808D01*
X434618Y181358D02*
X419383D01*
X424461Y186437D01*
X419383Y191515D01*
X434618D01*
X421922Y206750D02*
X419383Y204211D01*
Y199132D01*
X421922Y196593D01*
X432078D01*
X434618Y199132D01*
Y204211D01*
X432078Y206750D01*
X419383Y211828D02*
X429539D01*
X434618Y216907D01*
X429539Y221985D01*
X419383D01*
X434618Y227063D02*
Y232142D01*
Y229603D01*
X419383D01*
X421922Y227063D01*
X314618Y186373D02*
X299382D01*
X304461Y191451D01*
X299382Y196530D01*
X314618D01*
X299382Y211765D02*
Y201608D01*
X314618D01*
Y211765D01*
X307000Y201608D02*
Y206687D01*
X299382Y224461D02*
Y219382D01*
X301922Y216843D01*
X312078D01*
X314618Y219382D01*
Y224461D01*
X312078Y227000D01*
X301922D01*
X299382Y224461D01*
Y232078D02*
X312078D01*
X314618Y234618D01*
Y239696D01*
X312078Y242235D01*
X299382D01*
Y247313D02*
Y257470D01*
Y252392D01*
X314618D01*
Y262549D02*
Y267627D01*
Y265088D01*
X299382D01*
X301922Y262549D01*
X294618Y96373D02*
X279382D01*
X284461Y101452D01*
X279382Y106530D01*
X294618D01*
X281922Y121765D02*
X279382Y119226D01*
Y114147D01*
X281922Y111608D01*
X292078D01*
X294618Y114147D01*
Y119226D01*
X292078Y121765D01*
X279382Y134461D02*
Y129382D01*
X281922Y126843D01*
X292078D01*
X294618Y129382D01*
Y134461D01*
X292078Y137000D01*
X281922D01*
X279382Y134461D01*
Y142078D02*
X292078D01*
X294618Y144618D01*
Y149696D01*
X292078Y152235D01*
X279382D01*
Y157313D02*
Y167470D01*
Y162392D01*
X294618D01*
Y172549D02*
Y177627D01*
Y175088D01*
X279382D01*
X281922Y172549D01*
X323706Y325863D02*
Y341098D01*
X328784Y336019D01*
X333862Y341098D01*
Y325863D01*
X349098Y341098D02*
X338941D01*
Y325863D01*
X349098D01*
X338941Y333480D02*
X344019D01*
X354176Y325863D02*
X359254D01*
X356715D01*
Y341098D01*
X354176Y338558D01*
X808088Y376097D02*
Y360863D01*
X818245D01*
X833480Y376097D02*
X823323D01*
Y360863D01*
X833480D01*
X823323Y368480D02*
X828402D01*
X838558Y376097D02*
Y360863D01*
X846176D01*
X848715Y363402D01*
Y373558D01*
X846176Y376097D01*
X838558D01*
X853793Y360863D02*
X858872D01*
X856333D01*
Y376097D01*
X853793Y373558D01*
X402284Y428613D02*
Y443848D01*
X409902D01*
X412441Y441308D01*
Y436230D01*
X409902Y433691D01*
X402284D01*
X407363D02*
X412441Y428613D01*
X425137D02*
Y443848D01*
X417519Y436230D01*
X427676D01*
X193323Y430863D02*
Y446098D01*
X200941D01*
X203480Y443558D01*
Y438480D01*
X200941Y435941D01*
X193323D01*
X198402D02*
X203480Y430863D01*
X208558D02*
X213637D01*
X211098D01*
Y446098D01*
X208558Y443558D01*
X155260Y774382D02*
Y789617D01*
X160339Y784539D01*
X165417Y789617D01*
Y774382D01*
X170495Y789617D02*
Y774382D01*
X178113D01*
X180652Y776922D01*
Y787078D01*
X178113Y789617D01*
X170495D01*
X185730D02*
X190809D01*
X188270D01*
Y774382D01*
X185730D01*
X190809D01*
X198426D02*
Y789617D01*
X208583Y774382D01*
Y789617D01*
X213661Y774382D02*
X218740D01*
X216201D01*
Y789617D01*
X213661Y787078D01*
X43598Y357387D02*
X30902D01*
X28363Y354847D01*
Y349769D01*
X30902Y347230D01*
X43598D01*
X28363Y342152D02*
Y337073D01*
Y339612D01*
X43598D01*
X41058Y342152D01*
X606922Y515495D02*
X604383Y512956D01*
Y507878D01*
X606922Y505339D01*
X617078D01*
X619618Y507878D01*
Y512956D01*
X617078Y515495D01*
X604383Y520574D02*
Y525652D01*
Y523113D01*
X619618D01*
Y520574D01*
Y525652D01*
Y533270D02*
X604383D01*
X619618Y543426D01*
X604383D01*
X619618Y558661D02*
Y548505D01*
X609461Y558661D01*
X606922D01*
X604383Y556122D01*
Y551044D01*
X606922Y548505D01*
X562118Y588834D02*
X546883D01*
X551961Y593912D01*
X546883Y598991D01*
X562118D01*
X546883Y604069D02*
X562118D01*
Y611687D01*
X559578Y614226D01*
X549422D01*
X546883Y611687D01*
Y604069D01*
Y626922D02*
Y621843D01*
X549422Y619304D01*
X559578D01*
X562118Y621843D01*
Y626922D01*
X559578Y629461D01*
X549422D01*
X546883Y626922D01*
Y634539D02*
X559578D01*
X562118Y637078D01*
Y642157D01*
X559578Y644696D01*
X546883D01*
Y649774D02*
Y659931D01*
Y654853D01*
X562118D01*
Y675166D02*
Y665009D01*
X551961Y675166D01*
X549422D01*
X546883Y672627D01*
Y667549D01*
X549422Y665009D01*
X646804Y774382D02*
Y789617D01*
X651882Y784539D01*
X656961Y789617D01*
Y774382D01*
X672196D02*
X662039D01*
X672196Y784539D01*
Y787078D01*
X669657Y789617D01*
X664578D01*
X662039Y787078D01*
X391843Y774382D02*
Y789617D01*
X396922Y784539D01*
X402000Y789617D01*
Y774382D01*
X407078D02*
X412157D01*
X409618D01*
Y789617D01*
X407078Y787078D01*
X624187Y9383D02*
Y24618D01*
X629265Y19539D01*
X634343Y24618D01*
Y9383D01*
X649578Y22078D02*
X647039Y24618D01*
X641961D01*
X639422Y22078D01*
Y11922D01*
X641961Y9383D01*
X647039D01*
X649578Y11922D01*
X664814Y9383D02*
X654657D01*
X664814Y19539D01*
Y22078D01*
X662274Y24618D01*
X657196D01*
X654657Y22078D01*
X756843Y24578D02*
X754304Y27118D01*
X749226D01*
X746687Y24578D01*
Y14422D01*
X749226Y11882D01*
X754304D01*
X756843Y14422D01*
X772078Y24578D02*
X769539Y27118D01*
X764461D01*
X761922Y24578D01*
Y22039D01*
X764461Y19500D01*
X769539D01*
X772078Y16961D01*
Y14422D01*
X769539Y11882D01*
X764461D01*
X761922Y14422D01*
X787314Y11882D02*
X777157D01*
X787314Y22039D01*
Y24578D01*
X784774Y27118D01*
X779696D01*
X777157Y24578D01*
X44140Y646807D02*
X39062D01*
X41601D01*
Y634112D01*
X39062Y631572D01*
X36523D01*
X33983Y634112D01*
X49218Y631572D02*
X54297D01*
X51758D01*
Y646807D01*
X49218Y644268D01*
X221730Y356808D02*
X219191Y359348D01*
X214112D01*
X211573Y356808D01*
Y346652D01*
X214112Y344113D01*
X219191D01*
X221730Y346652D01*
X226808Y344113D02*
X231887D01*
X229348D01*
Y359348D01*
X226808Y356808D01*
X572098Y89814D02*
X556862D01*
X561941Y94892D01*
X556862Y99971D01*
X572098D01*
X559402Y115206D02*
X556862Y112667D01*
Y107588D01*
X559402Y105049D01*
X569558D01*
X572098Y107588D01*
Y112667D01*
X569558Y115206D01*
X556862Y127902D02*
Y122823D01*
X559402Y120284D01*
X569558D01*
X572098Y122823D01*
Y127902D01*
X569558Y130441D01*
X559402D01*
X556862Y127902D01*
Y135519D02*
X569558D01*
X572098Y138058D01*
Y143137D01*
X569558Y145676D01*
X556862D01*
Y150754D02*
Y160911D01*
Y155833D01*
X572098D01*
Y176146D02*
Y165989D01*
X561941Y176146D01*
X559402D01*
X556862Y173607D01*
Y168528D01*
X559402Y165989D01*
X581598Y185314D02*
X566362D01*
X571441Y190392D01*
X566362Y195471D01*
X581598D01*
X566362Y210706D02*
Y200549D01*
X581598D01*
Y210706D01*
X573980Y200549D02*
Y205627D01*
X566362Y223402D02*
Y218323D01*
X568902Y215784D01*
X579058D01*
X581598Y218323D01*
Y223402D01*
X579058Y225941D01*
X568902D01*
X566362Y223402D01*
Y231019D02*
X579058D01*
X581598Y233558D01*
Y238637D01*
X579058Y241176D01*
X566362D01*
Y246254D02*
Y256411D01*
Y251333D01*
X581598D01*
Y271646D02*
Y261489D01*
X571441Y271646D01*
X568902D01*
X566362Y269107D01*
Y264028D01*
X568902Y261489D01*
X720799Y156112D02*
Y171348D01*
X725877Y166269D01*
X730956Y171348D01*
Y156112D01*
X746191Y168808D02*
X743652Y171348D01*
X738573D01*
X736034Y168808D01*
Y158652D01*
X738573Y156112D01*
X743652D01*
X746191Y158652D01*
X751269Y171348D02*
Y161191D01*
X756348Y156112D01*
X761426Y161191D01*
Y171348D01*
X776661Y156112D02*
X766504D01*
X776661Y166269D01*
Y168808D01*
X774122Y171348D01*
X769044D01*
X766504Y168808D01*
X628917Y325863D02*
Y341098D01*
X633995Y336019D01*
X639073Y341098D01*
Y325863D01*
X654308Y341098D02*
X644152D01*
Y325863D01*
X654308D01*
X644152Y333480D02*
X649230D01*
X669544Y325863D02*
X659387D01*
X669544Y336019D01*
Y338558D01*
X667004Y341098D01*
X661926D01*
X659387Y338558D01*
X719534Y381362D02*
Y396598D01*
X727152D01*
X729691Y394058D01*
Y388980D01*
X727152Y386441D01*
X719534D01*
X724613D02*
X729691Y381362D01*
X734769Y394058D02*
X737308Y396598D01*
X742387D01*
X744926Y394058D01*
Y391519D01*
X742387Y388980D01*
X739848D01*
X742387D01*
X744926Y386441D01*
Y383902D01*
X742387Y381362D01*
X737308D01*
X734769Y383902D01*
D14*
X173503Y200997D02*
X183500D01*
X178501Y205995D02*
Y195998D01*
X267497Y305003D02*
X257500D01*
X262499Y300005D02*
Y310002D01*
M02*
